<svg width="300" height="111" viewBox="0 0 300 111" fill="none" xmlns="http://www.w3.org/2000/svg">
<g clip-path="url(#clip0_2320_92300)">
<path d="M98.1376 78.3998C96.6164 76.0241 94.2035 75.8008 92.9799 75.8008C88.2286 75.8008 85 79.5876 85 84.3297C85 89.0438 88.2658 92.9035 93.2017 92.9035C94.3523 92.9035 96.5047 92.643 98.1376 90.3061V92.3841H102.666V76.3218H98.1376V78.3998ZM94.129 88.9105C91.5316 88.9105 89.68 86.8945 89.68 84.3374C89.68 81.7803 91.5409 79.8094 94.1337 79.8094C96.7265 79.8094 98.5889 81.7772 98.5889 84.3374C98.5889 86.8976 96.728 88.9105 94.129 88.9105Z" fill="black"/>
<path d="M120.186 92.3918V82.2967C120.186 80.7382 120.031 79.141 118.923 77.7686C117.663 76.2179 115.583 75.8008 114.174 75.8008C111.576 75.8008 110.053 77.2119 109.2 78.3998V76.3218H104.672V92.3918H109.2V84.1901C109.2 83.2597 109.238 82.1106 109.904 81.0716C110.573 80.0699 111.5 79.662 112.696 79.662C113.141 79.662 114.107 79.7349 114.812 80.4777C115.628 81.3322 115.665 82.7417 115.665 83.6334V92.3918H120.186Z" fill="black"/>
<path d="M135.056 76.3223L130.6 85.4528L125.627 76.3223H120.358L128.003 89.9794L122.172 100.763H127.291L140.176 76.3223H135.056Z" fill="black"/>
<path d="M151.429 75.8009C150.057 75.8009 147.793 76.173 146.197 78.3998V67.9512H141.669V92.3919H146.197V90.3139C147.94 92.7253 150.278 92.9114 151.314 92.9114C156.064 92.9114 159.33 89.2377 159.33 84.3375C159.335 79.476 156.18 75.8009 151.429 75.8009ZM150.206 88.9105C147.607 88.9105 145.75 86.907 145.75 84.3453C145.75 81.7835 147.611 79.8172 150.206 79.8172C152.8 79.8172 154.655 81.7773 154.655 84.3375C154.655 86.8977 152.803 88.9105 150.206 88.9105Z" fill="black"/>
<path d="M172.476 76.1736C171.859 75.9358 171.205 75.8098 170.545 75.8015C169.605 75.777 168.678 76.0218 167.873 76.5071C167.54 76.6931 166.573 77.3615 165.869 78.7339V76.3225H161.34V92.3925H165.869V86.0036C165.869 83.907 166.096 82.3765 166.955 81.2987C167.847 80.1853 168.918 79.8101 169.773 79.8101C170.347 79.7868 170.919 79.9005 171.441 80.1419C171.922 78.8943 172.643 77.7535 173.564 76.7846C173.224 76.5421 172.859 76.3372 172.476 76.1736V76.1736Z" fill="black"/>
<path d="M185.805 78.3998C184.282 76.0241 181.871 75.8008 180.646 75.8008C175.895 75.8008 172.666 79.5876 172.666 84.3297C172.666 89.0438 175.932 92.9035 180.868 92.9035C182.02 92.9035 184.172 92.643 185.805 90.3061V92.3841H190.333V76.3203H185.805V78.3998ZM181.792 88.9105C179.193 88.9105 177.338 86.9069 177.338 84.3452C177.338 81.7834 179.199 79.8171 181.792 79.8171C184.385 79.8171 186.246 81.785 186.246 84.3452C186.246 86.9054 184.394 88.9105 181.792 88.9105Z" fill="black"/>
<path d="M194.601 67.9512C194.065 67.9512 193.541 68.1102 193.095 68.4081C192.649 68.706 192.302 69.1294 192.097 69.6248C191.892 70.1202 191.838 70.6653 191.943 71.1912C192.048 71.717 192.306 72.2 192.685 72.5791C193.064 72.9581 193.547 73.2161 194.073 73.3205C194.599 73.4249 195.144 73.3711 195.64 73.1657C196.135 72.9603 196.558 72.6126 196.856 72.1666C197.153 71.7207 197.312 71.1964 197.312 70.6602C197.308 69.9427 197.021 69.2558 196.513 68.7486C196.006 68.2414 195.319 67.9548 194.601 67.9512V67.9512Z" fill="black"/>
<path d="M196.866 76.3223H192.338V92.3923H196.866V76.3223Z" fill="black"/>
<path d="M213.124 77.7686C211.862 76.2179 209.782 75.8008 208.373 75.8008C205.775 75.8008 204.253 77.2119 203.4 78.3998V76.3218H198.872V92.3918H203.4V84.1901C203.4 83.2597 203.437 82.1106 204.105 81.0716C204.772 80.0699 205.701 79.662 206.889 79.662C207.334 79.662 208.298 79.7349 209.004 80.4777C209.82 81.3322 209.858 82.7417 209.858 83.6334V92.3918H214.385V82.2967C214.385 80.7382 214.238 79.141 213.124 77.7686Z" fill="black"/>
<path d="M111.191 33.0699C111.11 32.5959 111.123 32.1105 111.229 31.6415C111.335 31.1724 111.532 30.7288 111.81 30.3361C112.088 29.9434 112.44 29.6093 112.847 29.3528C113.254 29.0963 113.707 28.9224 114.181 28.8412L117.041 28.3465C117.997 28.1828 118.979 28.4053 119.772 28.9653C120.565 29.5253 121.103 30.3769 121.268 31.3331V31.3331C121.35 31.8072 121.338 32.2929 121.232 32.7623C121.127 33.2318 120.929 33.6758 120.652 34.0689C120.375 34.4621 120.022 34.7968 119.616 35.0537C119.209 35.3107 118.755 35.485 118.281 35.5666L115.422 36.0566C114.465 36.2212 113.481 35.9991 112.688 35.439C111.895 34.879 111.356 34.0268 111.191 33.0699V33.0699ZM169.713 11.0003C158.474 11.0623 151.942 18.3289 151.942 18.3289C145.178 24.5627 135.858 25.2637 135.858 25.2637L127.672 26.529C122.961 27.3525 123.795 34.4035 128.868 33.7584L130.823 33.4064C134.753 32.766 135.283 37.9919 131.989 38.6416L107.646 42.9433C102.965 43.9109 103.962 50.6255 108.754 50.182L142.841 44.3963C146.426 44.2784 146.751 49.0639 143.59 49.6951L119.805 53.8975C115.17 54.7954 115.944 61.4324 120.713 61.1688L144.963 57.1369C144.963 57.1369 152.384 55.6172 161.166 59.7157C174.781 65.0982 188.53 56.9725 193.055 45.3748C199.675 27.7339 186.433 10.9243 169.713 11.0003V11.0003ZM170.374 48.9275C153.015 48.1304 153.327 23.6509 170.374 23.0074C187.733 23.8045 187.421 48.2824 170.374 48.9275V48.9275Z" fill="black"/>
</g>
<defs>
<clipPath id="clip0_2320_92300">
<rect width="129.386" height="89.7627" fill="white" transform="translate(85 11)"/>
</clipPath>
</defs>
</svg>
