<svg width="300" height="111" viewBox="0 0 300 111" fill="none" xmlns="http://www.w3.org/2000/svg">
<path fill-rule="evenodd" clip-rule="evenodd" d="M116.617 49.3994C121.628 49.3994 124.001 52.263 124.001 52.263L121.892 55.5406C121.892 55.5406 119.895 53.4686 116.881 53.4686C113.34 53.4686 111.041 56.1434 111.041 59.4209C111.041 62.6608 113.377 65.4486 117.031 65.4486C120.271 65.4486 122.683 62.9999 122.683 62.9999L124.529 66.3909C124.529 66.3909 121.779 69.5173 116.617 69.5173C110.25 69.5173 106.182 65.0342 106.182 59.4586C106.182 53.996 110.25 49.3994 116.617 49.3994Z" fill="black"/>
<path fill-rule="evenodd" clip-rule="evenodd" d="M127.135 42.3164H131.919V51.584C131.919 52.5263 131.844 53.2044 131.844 53.2044H131.919C132.861 51.3584 135.197 49.3989 138.55 49.3989C142.807 49.3989 145.218 51.6221 145.218 56.708V69.0653H140.472V57.6875C140.472 55.3518 139.869 53.7695 137.42 53.7695C134.895 53.7695 132.937 55.4271 132.221 57.7628C131.995 58.5163 131.919 59.3451 131.919 60.2493V69.0653H127.135V42.3164Z" fill="black"/>
<path fill-rule="evenodd" clip-rule="evenodd" d="M155.714 65.7882C158.238 65.7882 160.047 63.0757 160.047 60.74V60.2874H159.217C156.769 60.2874 152.813 60.6265 152.813 63.3017C152.813 64.5826 153.755 65.7882 155.714 65.7882ZM159.368 57.0099H160.009V56.7461C160.009 54.2221 158.426 53.3556 156.316 53.3556C153.566 53.3556 151.042 55.2016 151.042 55.2016L149.233 51.7728C149.233 51.7728 152.21 49.3994 156.769 49.3994C161.817 49.3994 164.756 52.1877 164.756 57.0475V69.0657H160.348V67.4835C160.348 66.73 160.423 66.1272 160.423 66.1272H160.348C160.386 66.1272 158.878 69.5178 154.508 69.5178C151.079 69.5178 147.991 67.3704 147.991 63.5273C147.991 57.4247 156.241 57.0099 159.368 57.0099Z" fill="black"/>
<path fill-rule="evenodd" clip-rule="evenodd" d="M168.955 49.852H173.552V52.0747C173.552 52.7905 173.476 53.3932 173.476 53.3932H173.552C174.38 51.7733 176.49 49.3994 180.37 49.3994C184.628 49.3994 187.039 51.6226 187.039 56.7085V69.0657H182.292V57.6885C182.292 55.3527 181.689 53.77 179.24 53.77C176.679 53.77 174.795 55.3899 174.079 57.6885C173.815 58.4791 173.74 59.3456 173.74 60.2497V69.0657H168.955V49.852Z" fill="black"/>
<path fill-rule="evenodd" clip-rule="evenodd" d="M191.273 49.852H195.869V52.0747C195.869 52.7905 195.793 53.3932 195.793 53.3932H195.869C196.698 51.7733 198.808 49.3994 202.688 49.3994C206.945 49.3994 209.356 51.6226 209.356 56.7085V69.0657H204.609V57.6885C204.609 55.3527 204.007 53.77 201.558 53.77C198.996 53.77 197.113 55.3899 196.396 57.6885C196.133 58.4791 196.057 59.3456 196.057 60.2497V69.0657H191.273V49.852Z" fill="black"/>
<path fill-rule="evenodd" clip-rule="evenodd" d="M219.852 65.7882C222.376 65.7882 224.185 63.0757 224.185 60.74V60.2874H223.355C220.906 60.2874 216.951 60.6265 216.951 63.3017C216.951 64.5826 217.892 65.7882 219.852 65.7882ZM223.506 57.0099H224.147V56.7461C224.147 54.2221 222.564 53.3556 220.454 53.3556C217.704 53.3556 215.18 55.2016 215.18 55.2016L213.372 51.7728C213.372 51.7728 216.348 49.3994 220.906 49.3994C225.955 49.3994 228.894 52.1877 228.894 57.0475V69.0657H224.486V67.4835C224.486 66.73 224.561 66.1272 224.561 66.1272H224.486C224.523 66.1272 223.017 69.5178 218.646 69.5178C215.217 69.5178 212.129 67.3704 212.129 63.5273C212.129 57.4247 220.379 57.0099 223.506 57.0099Z" fill="black"/>
<path fill-rule="evenodd" clip-rule="evenodd" d="M242.512 65.4863C245.149 65.4863 247.334 63.3389 247.334 59.534C247.334 55.8792 245.376 53.5058 242.55 53.5058C240.063 53.5058 237.728 55.3141 237.728 59.5716C237.728 62.5478 239.31 65.4863 242.512 65.4863ZM233.093 42.3164H237.878V50.5668C237.878 51.5091 237.803 52.1872 237.803 52.1872H237.878C237.878 52.1872 239.574 49.3989 243.642 49.3989C248.841 49.3989 252.157 53.5058 252.157 59.4586C252.157 65.5617 248.427 69.5173 243.341 69.5173C239.347 69.5173 237.614 66.6542 237.614 66.6542H237.539C237.539 66.6542 237.614 67.2193 237.614 67.9727V69.0653H233.093V42.3164Z" fill="black"/>
<path fill-rule="evenodd" clip-rule="evenodd" d="M255.237 42.3164H259.984V62.359C259.984 64.4687 260.7 64.9966 261.943 64.9966C262.32 64.9966 262.659 64.9589 262.659 64.9589V69.1406C262.659 69.1406 261.943 69.2531 261.151 69.2531C258.514 69.2531 255.237 68.5755 255.237 63.0748V42.3164Z" fill="black"/>
<path fill-rule="evenodd" clip-rule="evenodd" d="M277.178 57.0852C277.103 54.4853 275.483 53.0914 273.373 53.0914C270.924 53.0914 269.229 54.5988 268.776 57.0852H277.178ZM273.486 49.3994C279.024 49.3994 282 53.4309 282 58.5168C282 59.0819 281.887 60.3628 281.887 60.3628H268.626C268.928 63.7161 271.527 65.4486 274.39 65.4486C277.479 65.4486 279.928 63.3389 279.928 63.3389L281.775 66.7677C281.775 66.7677 278.836 69.5173 274.051 69.5173C267.684 69.5173 263.728 64.9217 263.728 59.4586C263.728 53.5439 267.759 49.3994 273.486 49.3994Z" fill="black"/>
<path fill-rule="evenodd" clip-rule="evenodd" d="M34.9046 49.748L18 59.4078V78.7273L34.9046 88.3871L51.8092 78.7273L34.9046 69.0676V49.748Z" stroke="black" stroke-width="1.65"/>
<path fill-rule="evenodd" clip-rule="evenodd" d="M68.7137 49.748V69.0676L51.8091 78.7273L68.7137 88.3871L85.6182 78.7273V59.4078L68.7137 49.748Z" stroke="black" stroke-width="1.65"/>
<path fill-rule="evenodd" clip-rule="evenodd" d="M68.7139 49.7478V30.4283L51.8094 20.7686L34.9048 30.4283V49.7478L51.8094 40.0881L68.7139 49.7478Z" stroke="black" stroke-width="1.65"/>
<path fill-rule="evenodd" clip-rule="evenodd" d="M34.9048 49.748V69.0676L51.8094 78.7273V59.4078L34.9048 49.748Z" stroke="black" stroke-width="1.65"/>
<path fill-rule="evenodd" clip-rule="evenodd" d="M68.7137 49.748L51.8091 59.4078V78.7273L68.7137 69.0676V49.748Z" stroke="black" stroke-width="1.65"/>
<path fill-rule="evenodd" clip-rule="evenodd" d="M68.7139 49.7477L51.8094 40.0879L34.9048 49.7477L51.8094 59.4074L68.7139 49.7477Z" stroke="black" stroke-width="1.65"/>
</svg>
