<svg width="300" height="111" viewBox="0 0 300 111" fill="none" xmlns="http://www.w3.org/2000/svg">
<path d="M94.256 60.6466C94.2489 58.9699 94.5748 57.3087 95.215 55.7607C95.855 54.2128 96.7959 52.8095 97.9827 51.6335C99.1693 50.4575 100.578 49.5324 102.125 48.9129C103.672 48.2933 105.326 47.9918 106.991 48.0261C109.083 48.0215 111.144 48.5364 112.992 49.5251C114.84 50.5139 116.418 51.9461 117.586 53.6951L112.313 56.9272C111.721 56.0546 110.927 55.3397 110 54.8438C109.073 54.3481 108.04 54.0859 106.991 54.0797C105.282 54.0797 103.643 54.7635 102.434 55.9806C101.226 57.1978 100.547 58.8484 100.547 60.5697C100.547 62.2909 101.226 63.9415 102.434 65.1587C103.643 66.3758 105.282 67.0594 106.991 67.0594C108.097 67.0698 109.187 66.7918 110.156 66.2524C111.124 65.7131 111.938 64.9307 112.517 63.9812L117.611 67.2648C116.465 69.0552 114.893 70.5299 113.039 71.5556C111.185 72.5812 109.106 73.1253 106.991 73.1389C105.339 73.1626 103.7 72.8581 102.166 72.2429C100.632 71.6275 99.2334 70.7136 98.0505 69.5531C96.8675 68.3928 95.9236 67.0089 95.2724 65.4805C94.6214 63.9522 94.2759 62.3095 94.256 60.6466Z" fill="black"/>
<path d="M119.721 60.6539C119.724 58.9848 120.057 57.3331 120.702 55.7956C121.347 54.2579 122.29 52.8655 123.476 51.6997C124.662 50.5339 126.067 49.6182 127.609 49.0062C129.151 48.3943 130.799 48.0984 132.455 48.136C134.907 48.1915 137.288 48.9748 139.299 50.3876C141.311 51.8004 142.863 53.7799 143.762 56.0775C144.661 58.3754 144.867 60.8894 144.353 63.3045C143.839 65.7196 142.629 67.928 140.874 69.6532C139.119 71.3782 136.897 72.5431 134.488 73.0018C132.078 73.4604 129.588 73.1924 127.329 72.2315C125.07 71.2705 123.143 69.6592 121.79 67.5995C120.436 65.54 119.716 63.1238 119.721 60.6539ZM138.67 60.6539C138.644 59.4095 138.255 58.2002 137.549 57.1786C136.843 56.1567 135.853 55.3681 134.703 54.9116C133.553 54.4552 132.295 54.3514 131.087 54.6135C129.879 54.8755 128.775 55.4914 127.913 56.3839C127.052 57.2764 126.472 58.4056 126.246 59.6293C126.02 60.8531 126.158 62.1168 126.644 63.2613C127.129 64.4059 127.94 65.3804 128.974 66.0622C130.008 66.7439 131.22 67.1023 132.455 67.0924C133.292 67.0926 134.121 66.9256 134.894 66.6015C135.667 66.2772 136.368 65.8022 136.958 65.2036C137.547 64.605 138.013 63.8949 138.329 63.1139C138.645 62.333 138.804 61.497 138.797 60.6539H138.67Z" fill="black"/>
<path d="M171.655 48.0601L162.155 73.173H155.381L145.957 48.0088H152.834L158.717 65.4262L164.804 48.0601H171.655Z" fill="black"/>
<path d="M195.362 60.6488C195.362 61.1616 195.362 61.9568 195.362 62.6238H177.534C177.832 64.0894 178.645 65.3975 179.824 66.3071C181.003 67.2168 182.469 67.6668 183.952 67.5746C185.05 67.6251 186.146 67.4199 187.153 66.9751C188.16 66.5302 189.052 65.8576 189.759 65.0095L193.783 68.3441C192.654 69.9198 191.157 71.1912 189.425 72.0456C187.693 72.9001 185.778 73.3116 183.85 73.2436C182.171 73.3187 180.494 73.0434 178.926 72.4353C177.357 71.827 175.93 70.8989 174.735 69.7092C173.539 68.5195 172.6 67.0936 171.977 65.5212C171.355 63.9487 171.061 62.2638 171.116 60.5718C171.092 58.9521 171.388 57.3438 171.986 55.84C172.584 54.3364 173.473 52.9675 174.601 51.8126C175.729 50.6576 177.073 49.7397 178.556 49.1121C180.039 48.4845 181.63 48.1596 183.239 48.1564C184.872 48.0923 186.5 48.3738 188.019 48.9827C189.537 49.5916 190.912 50.5145 192.054 51.6916C193.196 52.8688 194.082 54.2742 194.65 55.8169C195.22 57.3598 195.463 59.0058 195.362 60.6488ZM189.071 58.0835C188.875 56.7566 188.171 55.5595 187.109 54.7492C186.048 53.9387 184.713 53.5796 183.391 53.7485C182.056 53.6901 180.739 54.0858 179.654 54.872C178.568 55.6583 177.777 56.7895 177.406 58.0835H189.071Z" fill="black"/>
<path d="M214.873 48.0324V54.0862H214.414C209.118 54.0862 206.315 55.5227 206.315 59.909V73.1453H199.923V48.4941H206.315V50.6232C207.36 49.7111 208.572 49.015 209.882 48.5749C211.194 48.1348 212.579 47.9591 213.956 48.058L214.873 48.0324Z" fill="black"/>
<path d="M218.421 48.9033V43.3882C218.421 38.2579 220.84 35.0002 225.883 35.0002C227.474 34.9928 229.058 35.1998 230.594 35.6158V41.2079C229.632 41.0714 228.663 40.9857 227.69 40.9514C225.73 40.9514 224.737 41.6439 224.737 44.1834V48.9033H228.812V54.9057H224.737V73.1697H218.421V54.9057" fill="black"/>
<path d="M233.343 66.0173V35.415H239.659V64.5551C239.659 66.1713 240.118 67.1202 242.207 67.1202C242.52 67.1417 242.835 67.1417 243.15 67.1202V72.738C242.272 72.9983 241.364 73.1364 240.449 73.1484C239.493 73.2533 238.526 73.1413 237.619 72.8204C236.711 72.4994 235.885 71.9778 235.203 71.294C234.523 70.6101 234.001 69.7811 233.681 68.8681C233.358 67.955 233.243 66.9808 233.343 66.0173Z" fill="black"/>
<path d="M269.102 60.6519C269.102 61.165 269.102 61.9602 269.102 62.6272H251.275C251.573 64.0928 252.386 65.4007 253.565 66.3103C254.745 67.2199 256.21 67.67 257.693 67.5779C258.791 67.6284 259.887 67.4233 260.893 66.9784C261.901 66.5336 262.792 65.8608 263.5 65.0126L267.447 68.3474C266.318 69.923 264.822 71.1943 263.09 72.0488C261.357 72.9035 259.443 73.3148 257.514 73.2469C255.835 73.322 254.16 73.0468 252.591 72.4385C251.021 71.8304 249.596 70.9023 248.399 69.7124C247.203 68.5226 246.265 67.0968 245.643 65.5244C245.019 63.9521 244.726 62.267 244.78 60.575C244.756 58.9553 245.052 57.347 245.65 55.8434C246.249 54.3398 247.138 52.9707 248.265 51.8158C249.394 50.6609 250.738 49.743 252.22 49.1153C253.703 48.4877 255.295 48.1629 256.903 48.1597C258.543 48.0845 260.179 48.3577 261.707 48.9617C263.234 49.5657 264.618 50.4869 265.77 51.6652C266.92 52.8436 267.813 54.2528 268.387 55.8013C268.961 57.3496 269.205 59.0022 269.102 60.6519ZM262.813 58.0868C262.593 56.7633 261.868 55.5791 260.791 54.7878C259.715 53.9967 258.375 53.6616 257.056 53.8543C255.746 53.8072 254.458 54.1963 253.388 54.9615C252.32 55.7265 251.534 56.8251 251.148 58.0868H262.813Z" fill="black"/>
<path d="M294.649 48.0088H287.34L282.627 55.3195V55.2938L277.966 48.0088H270.633L279.112 60.6294L270.633 73.173H277.916L282.653 65.9393V65.9905L287.365 73.173H294.649L286.703 60.6294L294.649 48.0088Z" fill="black"/>
<path fill-rule="evenodd" clip-rule="evenodd" d="M72.6057 74.5442C72.2201 67.5323 69.5359 60.5992 64.4858 54.9615C52.6888 41.7918 32.4494 40.6789 19.2797 52.4759C12.7002 58.3695 9.13007 66.3703 8.67554 74.544L72.6057 74.5442Z" fill="black"/>
<path fill-rule="evenodd" clip-rule="evenodd" d="M72.6057 74.5442C72.2201 67.5323 69.5359 60.5992 64.4858 54.9615C52.6888 41.7918 32.4494 40.6789 19.2797 52.4759C12.7002 58.3695 9.13007 66.3703 8.67554 74.544L72.6057 74.5442Z" fill="black"/>
</svg>
