<svg width="300" height="111" viewBox="0 0 300 111" fill="none" xmlns="http://www.w3.org/2000/svg">
<mask id="mask0_2320_92325" style="mask-type:alpha" maskUnits="userSpaceOnUse" x="38" y="22" width="64" height="66">
<path fill-rule="evenodd" clip-rule="evenodd" d="M80.2041 63.5306C81.7755 63.5306 82.898 64.8775 82.898 66.2245C82.898 67.7959 81.551 68.9184 80.2041 68.9184C78.6326 68.9184 77.5102 67.5714 77.5102 66.2245C77.2857 64.6531 78.6326 63.5306 80.2041 63.5306ZM95.2449 25.1429C96.8163 25.1429 97.9388 26.4898 97.9388 27.8367C97.9388 29.4082 96.5918 30.5306 95.2449 30.5306C93.6735 30.5306 92.551 29.1837 92.551 27.8367C92.551 26.2653 93.6735 25.1429 95.2449 25.1429ZM45.6327 30.5306H90.0816C90.9796 32.3265 93 33.6735 95.2449 33.6735C98.3877 33.6735 101.082 30.9796 101.082 27.8367C101.082 24.6939 98.3877 22 95.2449 22C92.7755 22 90.7551 23.5714 89.8571 25.5918H45.6327C41.3673 25.5918 38 28.7347 38 33V80.1429C38 84.4082 41.5918 88 45.6327 88H92.7755C97.0408 88 100.408 84.4082 100.408 80.1429V52.3061C100.408 48.0408 97.0408 44.6735 92.7755 44.6735H64.9388C60.6735 44.6735 57.0816 48.2653 57.0816 52.3061V61.0612C57.0816 65.102 60.6735 68.4694 64.9388 68.4694H74.8163C75.7143 70.7143 77.7347 72.0612 80.2041 72.0612C83.3469 72.0612 86.0408 69.3673 86.0408 66.2245C86.0408 63.0816 83.3469 60.3878 80.2041 60.3878C77.9592 60.3878 75.9388 61.7347 75.0408 63.5306H64.9388C63.5918 63.5306 62.0204 62.6327 62.0204 61.0612V52.3061C62.0204 50.9592 63.3673 49.6122 64.9388 49.6122H93C94.5714 49.6122 95.6939 50.7347 95.6939 52.3061V80.3673C95.6939 81.9388 94.5714 83.2857 93 83.2857H45.8571C44.2857 83.2857 43.1633 81.9388 43.1633 80.3673V33.2245C42.9388 31.6531 44.0612 30.5306 45.6327 30.5306Z" fill="white"/>
</mask>
<g mask="url(#mask0_2320_92325)">
<path fill-rule="evenodd" clip-rule="evenodd" d="M38 33.4487H45.4082V23.3467H38V33.4487Z" fill="black"/>
</g>
<mask id="mask1_2320_92325" style="mask-type:alpha" maskUnits="userSpaceOnUse" x="38" y="22" width="64" height="66">
<path fill-rule="evenodd" clip-rule="evenodd" d="M80.2041 63.5306C81.7755 63.5306 82.898 64.8775 82.898 66.2245C82.898 67.7959 81.551 68.9184 80.2041 68.9184C78.6326 68.9184 77.5102 67.5714 77.5102 66.2245C77.2857 64.6531 78.6326 63.5306 80.2041 63.5306ZM95.2449 25.1429C96.8163 25.1429 97.9388 26.4898 97.9388 27.8367C97.9388 29.4082 96.5918 30.5306 95.2449 30.5306C93.6735 30.5306 92.551 29.1837 92.551 27.8367C92.551 26.2653 93.6735 25.1429 95.2449 25.1429ZM45.6327 30.5306H90.0816C90.9796 32.3265 93 33.6735 95.2449 33.6735C98.3877 33.6735 101.082 30.9796 101.082 27.8367C101.082 24.6939 98.3877 22 95.2449 22C92.7755 22 90.7551 23.5714 89.8571 25.5918H45.6327C41.3673 25.5918 38 28.7347 38 33V80.1429C38 84.4082 41.5918 88 45.6327 88H92.7755C97.0408 88 100.408 84.4082 100.408 80.1429V52.3061C100.408 48.0408 97.0408 44.6735 92.7755 44.6735H64.9388C60.6735 44.6735 57.0816 48.2653 57.0816 52.3061V61.0612C57.0816 65.102 60.6735 68.4694 64.9388 68.4694H74.8163C75.7143 70.7143 77.7347 72.0612 80.2041 72.0612C83.3469 72.0612 86.0408 69.3673 86.0408 66.2245C86.0408 63.0816 83.3469 60.3878 80.2041 60.3878C77.9592 60.3878 75.9388 61.7347 75.0408 63.5306H64.9388C63.5918 63.5306 62.0204 62.6327 62.0204 61.0612V52.3061C62.0204 50.9592 63.3673 49.6122 64.9388 49.6122H93C94.5714 49.6122 95.6939 50.7347 95.6939 52.3061V80.3673C95.6939 81.9388 94.5714 83.2857 93 83.2857H45.8571C44.2857 83.2857 43.1633 81.9388 43.1633 80.3673V33.2245C42.9388 31.6531 44.0612 30.5306 45.6327 30.5306Z" fill="white"/>
</mask>
<g mask="url(#mask1_2320_92325)">
<path fill-rule="evenodd" clip-rule="evenodd" d="M38 87.9997H45.4082V80.1426H38V87.9997Z" fill="black"/>
</g>
<mask id="mask2_2320_92325" style="mask-type:alpha" maskUnits="userSpaceOnUse" x="38" y="22" width="64" height="66">
<path fill-rule="evenodd" clip-rule="evenodd" d="M80.2041 63.5306C81.7755 63.5306 82.898 64.8775 82.898 66.2245C82.898 67.7959 81.551 68.9184 80.2041 68.9184C78.6326 68.9184 77.5102 67.5714 77.5102 66.2245C77.2857 64.6531 78.6326 63.5306 80.2041 63.5306ZM95.2449 25.1429C96.8163 25.1429 97.9388 26.4898 97.9388 27.8367C97.9388 29.4082 96.5918 30.5306 95.2449 30.5306C93.6735 30.5306 92.551 29.1837 92.551 27.8367C92.551 26.2653 93.6735 25.1429 95.2449 25.1429ZM45.6327 30.5306H90.0816C90.9796 32.3265 93 33.6735 95.2449 33.6735C98.3877 33.6735 101.082 30.9796 101.082 27.8367C101.082 24.6939 98.3877 22 95.2449 22C92.7755 22 90.7551 23.5714 89.8571 25.5918H45.6327C41.3673 25.5918 38 28.7347 38 33V80.1429C38 84.4082 41.5918 88 45.6327 88H92.7755C97.0408 88 100.408 84.4082 100.408 80.1429V52.3061C100.408 48.0408 97.0408 44.6735 92.7755 44.6735H64.9388C60.6735 44.6735 57.0816 48.2653 57.0816 52.3061V61.0612C57.0816 65.102 60.6735 68.4694 64.9388 68.4694H74.8163C75.7143 70.7143 77.7347 72.0612 80.2041 72.0612C83.3469 72.0612 86.0408 69.3673 86.0408 66.2245C86.0408 63.0816 83.3469 60.3878 80.2041 60.3878C77.9592 60.3878 75.9388 61.7347 75.0408 63.5306H64.9388C63.5918 63.5306 62.0204 62.6327 62.0204 61.0612V52.3061C62.0204 50.9592 63.3673 49.6122 64.9388 49.6122H93C94.5714 49.6122 95.6939 50.7347 95.6939 52.3061V80.3673C95.6939 81.9388 94.5714 83.2857 93 83.2857H45.8571C44.2857 83.2857 43.1633 81.9388 43.1633 80.3673V33.2245C42.9388 31.6531 44.0612 30.5306 45.6327 30.5306Z" fill="white"/>
</mask>
<g mask="url(#mask2_2320_92325)">
<path fill-rule="evenodd" clip-rule="evenodd" d="M92.7754 87.9997H101.082V80.1426H92.7754V87.9997Z" fill="black"/>
</g>
<mask id="mask3_2320_92325" style="mask-type:alpha" maskUnits="userSpaceOnUse" x="38" y="22" width="64" height="66">
<path fill-rule="evenodd" clip-rule="evenodd" d="M80.2041 63.5306C81.7755 63.5306 82.898 64.8775 82.898 66.2245C82.898 67.7959 81.551 68.9184 80.2041 68.9184C78.6326 68.9184 77.5102 67.5714 77.5102 66.2245C77.2857 64.6531 78.6326 63.5306 80.2041 63.5306ZM95.2449 25.1429C96.8163 25.1429 97.9388 26.4898 97.9388 27.8367C97.9388 29.4082 96.5918 30.5306 95.2449 30.5306C93.6735 30.5306 92.551 29.1837 92.551 27.8367C92.551 26.2653 93.6735 25.1429 95.2449 25.1429ZM45.6327 30.5306H90.0816C90.9796 32.3265 93 33.6735 95.2449 33.6735C98.3877 33.6735 101.082 30.9796 101.082 27.8367C101.082 24.6939 98.3877 22 95.2449 22C92.7755 22 90.7551 23.5714 89.8571 25.5918H45.6327C41.3673 25.5918 38 28.7347 38 33V80.1429C38 84.4082 41.5918 88 45.6327 88H92.7755C97.0408 88 100.408 84.4082 100.408 80.1429V52.3061C100.408 48.0408 97.0408 44.6735 92.7755 44.6735H64.9388C60.6735 44.6735 57.0816 48.2653 57.0816 52.3061V61.0612C57.0816 65.102 60.6735 68.4694 64.9388 68.4694H74.8163C75.7143 70.7143 77.7347 72.0612 80.2041 72.0612C83.3469 72.0612 86.0408 69.3673 86.0408 66.2245C86.0408 63.0816 83.3469 60.3878 80.2041 60.3878C77.9592 60.3878 75.9388 61.7347 75.0408 63.5306H64.9388C63.5918 63.5306 62.0204 62.6327 62.0204 61.0612V52.3061C62.0204 50.9592 63.3673 49.6122 64.9388 49.6122H93C94.5714 49.6122 95.6939 50.7347 95.6939 52.3061V80.3673C95.6939 81.9388 94.5714 83.2857 93 83.2857H45.8571C44.2857 83.2857 43.1633 81.9388 43.1633 80.3673V33.2245C42.9388 31.6531 44.0612 30.5306 45.6327 30.5306Z" fill="white"/>
</mask>
<g mask="url(#mask3_2320_92325)">
<path fill-rule="evenodd" clip-rule="evenodd" d="M92.7754 52.5308H101.082V42.4287H92.7754V52.5308Z" fill="black"/>
</g>
<mask id="mask4_2320_92325" style="mask-type:alpha" maskUnits="userSpaceOnUse" x="38" y="22" width="64" height="66">
<path fill-rule="evenodd" clip-rule="evenodd" d="M80.2041 63.5306C81.7755 63.5306 82.898 64.8775 82.898 66.2245C82.898 67.7959 81.551 68.9184 80.2041 68.9184C78.6326 68.9184 77.5102 67.5714 77.5102 66.2245C77.2857 64.6531 78.6326 63.5306 80.2041 63.5306ZM95.2449 25.1429C96.8163 25.1429 97.9388 26.4898 97.9388 27.8367C97.9388 29.4082 96.5918 30.5306 95.2449 30.5306C93.6735 30.5306 92.551 29.1837 92.551 27.8367C92.551 26.2653 93.6735 25.1429 95.2449 25.1429ZM45.6327 30.5306H90.0816C90.9796 32.3265 93 33.6735 95.2449 33.6735C98.3877 33.6735 101.082 30.9796 101.082 27.8367C101.082 24.6939 98.3877 22 95.2449 22C92.7755 22 90.7551 23.5714 89.8571 25.5918H45.6327C41.3673 25.5918 38 28.7347 38 33V80.1429C38 84.4082 41.5918 88 45.6327 88H92.7755C97.0408 88 100.408 84.4082 100.408 80.1429V52.3061C100.408 48.0408 97.0408 44.6735 92.7755 44.6735H64.9388C60.6735 44.6735 57.0816 48.2653 57.0816 52.3061V61.0612C57.0816 65.102 60.6735 68.4694 64.9388 68.4694H74.8163C75.7143 70.7143 77.7347 72.0612 80.2041 72.0612C83.3469 72.0612 86.0408 69.3673 86.0408 66.2245C86.0408 63.0816 83.3469 60.3878 80.2041 60.3878C77.9592 60.3878 75.9388 61.7347 75.0408 63.5306H64.9388C63.5918 63.5306 62.0204 62.6327 62.0204 61.0612V52.3061C62.0204 50.9592 63.3673 49.6122 64.9388 49.6122H93C94.5714 49.6122 95.6939 50.7347 95.6939 52.3061V80.3673C95.6939 81.9388 94.5714 83.2857 93 83.2857H45.8571C44.2857 83.2857 43.1633 81.9388 43.1633 80.3673V33.2245C42.9388 31.6531 44.0612 30.5306 45.6327 30.5306Z" fill="white"/>
</mask>
<g mask="url(#mask4_2320_92325)">
<path fill-rule="evenodd" clip-rule="evenodd" d="M55.7349 52.5308H65.1634V42.4287H55.7349V52.5308Z" fill="black"/>
</g>
<mask id="mask5_2320_92325" style="mask-type:alpha" maskUnits="userSpaceOnUse" x="38" y="22" width="64" height="66">
<path fill-rule="evenodd" clip-rule="evenodd" d="M80.2041 63.5306C81.7755 63.5306 82.898 64.8775 82.898 66.2245C82.898 67.7959 81.551 68.9184 80.2041 68.9184C78.6326 68.9184 77.5102 67.5714 77.5102 66.2245C77.2857 64.6531 78.6326 63.5306 80.2041 63.5306ZM95.2449 25.1429C96.8163 25.1429 97.9388 26.4898 97.9388 27.8367C97.9388 29.4082 96.5918 30.5306 95.2449 30.5306C93.6735 30.5306 92.551 29.1837 92.551 27.8367C92.551 26.2653 93.6735 25.1429 95.2449 25.1429ZM45.6327 30.5306H90.0816C90.9796 32.3265 93 33.6735 95.2449 33.6735C98.3877 33.6735 101.082 30.9796 101.082 27.8367C101.082 24.6939 98.3877 22 95.2449 22C92.7755 22 90.7551 23.5714 89.8571 25.5918H45.6327C41.3673 25.5918 38 28.7347 38 33V80.1429C38 84.4082 41.5918 88 45.6327 88H92.7755C97.0408 88 100.408 84.4082 100.408 80.1429V52.3061C100.408 48.0408 97.0408 44.6735 92.7755 44.6735H64.9388C60.6735 44.6735 57.0816 48.2653 57.0816 52.3061V61.0612C57.0816 65.102 60.6735 68.4694 64.9388 68.4694H74.8163C75.7143 70.7143 77.7347 72.0612 80.2041 72.0612C83.3469 72.0612 86.0408 69.3673 86.0408 66.2245C86.0408 63.0816 83.3469 60.3878 80.2041 60.3878C77.9592 60.3878 75.9388 61.7347 75.0408 63.5306H64.9388C63.5918 63.5306 62.0204 62.6327 62.0204 61.0612V52.3061C62.0204 50.9592 63.3673 49.6122 64.9388 49.6122H93C94.5714 49.6122 95.6939 50.7347 95.6939 52.3061V80.3673C95.6939 81.9388 94.5714 83.2857 93 83.2857H45.8571C44.2857 83.2857 43.1633 81.9388 43.1633 80.3673V33.2245C42.9388 31.6531 44.0612 30.5306 45.6327 30.5306Z" fill="white"/>
</mask>
<g mask="url(#mask5_2320_92325)">
<path fill-rule="evenodd" clip-rule="evenodd" d="M55.7349 70.938H65.1634V60.8359H55.7349V70.938Z" fill="black"/>
</g>
<mask id="mask6_2320_92325" style="mask-type:alpha" maskUnits="userSpaceOnUse" x="38" y="33" width="5" height="48">
<path fill-rule="evenodd" clip-rule="evenodd" d="M38 33.2246H42.9388V80.3675H38V33.2246Z" fill="white"/>
</mask>
<g mask="url(#mask6_2320_92325)">
<path fill-rule="evenodd" clip-rule="evenodd" d="M80.2041 63.5306C81.7755 63.5306 82.898 64.8775 82.898 66.2245C82.898 67.7959 81.551 68.9184 80.2041 68.9184C78.6326 68.9184 77.5102 67.5714 77.5102 66.2245C77.2857 64.6531 78.6326 63.5306 80.2041 63.5306ZM95.2449 25.1429C96.8163 25.1429 97.9388 26.4898 97.9388 27.8367C97.9388 29.4082 96.5918 30.5306 95.2449 30.5306C93.6735 30.5306 92.551 29.1837 92.551 27.8367C92.551 26.2653 93.6735 25.1429 95.2449 25.1429ZM45.6327 30.5306H90.0816C90.9796 32.3265 93 33.6735 95.2449 33.6735C98.3877 33.6735 101.082 30.9796 101.082 27.8367C101.082 24.6939 98.3877 22 95.2449 22C92.7755 22 90.7551 23.5714 89.8571 25.5918H45.6327C41.3673 25.5918 38 28.7347 38 33V80.1428C38 84.4082 41.5918 88 45.6327 88H92.7755C97.0408 88 100.408 84.4082 100.408 80.1428V52.3061C100.408 48.0408 97.0408 44.6735 92.7755 44.6735H64.9388C60.6735 44.6735 57.0816 48.2653 57.0816 52.3061V61.0612C57.0816 65.102 60.6735 68.4694 64.9388 68.4694H74.8163C75.7143 70.7143 77.7347 72.0612 80.2041 72.0612C83.3469 72.0612 86.0408 69.3673 86.0408 66.2245C86.0408 63.0816 83.3469 60.3877 80.2041 60.3877C77.9592 60.3877 75.9388 61.7347 75.0408 63.5306H64.9388C63.5918 63.5306 62.0204 62.6327 62.0204 61.0612V52.3061C62.0204 50.9592 63.3673 49.6122 64.9388 49.6122H93C94.5714 49.6122 95.6939 50.7347 95.6939 52.3061V80.3673C95.6939 81.9388 94.5714 83.2857 93 83.2857H45.8571C44.2857 83.2857 43.1633 81.9388 43.1633 80.3673V33.2245C42.9388 31.6531 44.0612 30.5306 45.6327 30.5306Z" fill="black"/>
</g>
<mask id="mask7_2320_92325" style="mask-type:alpha" maskUnits="userSpaceOnUse" x="45" y="83" width="48" height="5">
<path fill-rule="evenodd" clip-rule="evenodd" d="M45.4082 83.0615C45.6327 83.0615 45.6327 83.0615 45.8572 83.0615H93V88.0003H45.8572C45.6327 88.0003 45.6327 88.0003 45.4082 88.0003V83.0615Z" fill="white"/>
</mask>
<g mask="url(#mask7_2320_92325)">
<path fill-rule="evenodd" clip-rule="evenodd" d="M80.2041 63.5306C81.7755 63.5306 82.898 64.8776 82.898 66.2245C82.898 67.5715 81.551 68.9184 80.2041 68.9184C78.6326 68.9184 77.5102 67.5715 77.5102 66.2245C77.5102 64.8776 78.6326 63.5306 80.2041 63.5306ZM95.2449 25.1429C96.8163 25.1429 97.9388 26.4898 97.9388 27.8367C97.9388 29.4082 96.5918 30.5306 95.2449 30.5306C93.6735 30.5306 92.551 29.1837 92.551 27.8367C92.551 26.2653 93.6735 25.1429 95.2449 25.1429ZM45.6327 30.5306H90.0816C90.9796 32.3265 93 33.6735 95.2449 33.6735C98.3878 33.6735 101.082 30.9796 101.082 27.8367C101.082 24.6939 98.3878 22 95.2449 22C92.7755 22 90.7551 23.5714 89.8571 25.5919H45.6327C41.3673 25.5919 38 28.7347 38 33V80.1429C38 84.4082 41.5918 88 45.6327 88H92.7755C97.0408 88 100.408 84.4082 100.408 80.1429V52.0817C100.408 47.8163 97.0408 44.449 92.7755 44.449H64.9388C60.6735 44.449 57.0816 48.0408 57.0816 52.0817V60.8367C57.0816 64.8776 60.6735 68.2449 64.9388 68.2449H74.8163C75.7143 70.4898 77.7347 71.8368 80.2041 71.8368C83.3469 71.8368 86.0408 69.1429 86.0408 66C86.0408 62.8572 83.3469 60.3878 80.2041 60.3878C77.9592 60.3878 75.9388 61.7347 75.0408 63.5306H64.9388C63.5918 63.5306 62.0204 62.6327 62.0204 61.0612V52.3061C62.0204 50.9592 63.3673 49.6123 64.9388 49.6123H93C94.5714 49.6123 95.6939 50.7347 95.6939 52.3061V80.3673C95.6939 81.9388 94.5714 83.2857 93 83.2857H45.8571C44.2857 83.2857 43.1633 81.9388 43.1633 80.3673V33.2245C42.9388 31.6531 44.0612 30.5306 45.6327 30.5306Z" fill="black"/>
</g>
<mask id="mask8_2320_92325" style="mask-type:alpha" maskUnits="userSpaceOnUse" x="95" y="52" width="6" height="29">
<path fill-rule="evenodd" clip-rule="evenodd" d="M100.408 52.3057V80.3669H95.4692V52.3057H100.408Z" fill="white"/>
</mask>
<g mask="url(#mask8_2320_92325)">
<path fill-rule="evenodd" clip-rule="evenodd" d="M80.2041 63.5306C81.7755 63.5306 82.898 64.8775 82.898 66.2245C82.898 67.5714 81.551 68.9184 80.2041 68.9184C78.6327 68.9184 77.5102 67.5714 77.5102 66.2245C77.5102 64.8775 78.6327 63.5306 80.2041 63.5306ZM95.2449 25.1429C96.8163 25.1429 97.9388 26.4898 97.9388 27.8367C97.9388 29.4082 96.5918 30.5306 95.2449 30.5306C93.6735 30.5306 92.551 29.1837 92.551 27.8367C92.551 26.2653 93.6735 25.1429 95.2449 25.1429ZM45.6326 30.5306H90.0816C90.9796 32.3265 93 33.6735 95.2449 33.6735C98.3877 33.6735 101.082 30.9796 101.082 27.8367C101.082 24.6939 98.3877 22 95.2449 22C92.7755 22 90.7551 23.5714 89.8571 25.5918H45.6326C41.3673 25.5918 38 28.7347 38 33V80.1428C38 84.4081 41.5918 88 45.6326 88H92.7755C97.0408 88 100.408 84.4081 100.408 80.1428V52.0816C100.408 47.8163 97.0408 44.449 92.7755 44.449H64.7143C60.449 44.449 56.8571 48.0408 56.8571 52.0816V60.8367C56.8571 64.8775 60.449 68.2449 64.7143 68.2449H74.5918C75.4898 70.4898 77.5102 71.8367 79.9796 71.8367C83.1224 71.8367 85.8163 69.1428 85.8163 66C85.8163 62.8571 83.1224 60.1633 79.9796 60.1633C77.7347 60.1633 75.7143 61.5102 74.8163 63.3061H64.7143C63.3673 63.3061 61.7959 62.4081 61.7959 60.8367V52.0816C61.7959 50.7347 63.1428 49.3877 64.7143 49.3877H92.7755C94.3469 49.3877 95.4694 50.5102 95.4694 52.0816V80.1428C95.4694 81.7143 94.3469 83.0612 92.7755 83.0612H45.6326C44.0612 83.0612 42.9388 81.7143 42.9388 80.1428V33C42.9388 31.6531 44.0612 30.5306 45.6326 30.5306Z" fill="black"/>
</g>
<mask id="mask9_2320_92325" style="mask-type:alpha" maskUnits="userSpaceOnUse" x="64" y="44" width="29" height="6">
<path fill-rule="evenodd" clip-rule="evenodd" d="M64.939 44.6738H93.0002V49.6126H64.939V44.6738Z" fill="white"/>
</mask>
<g mask="url(#mask9_2320_92325)">
<path fill-rule="evenodd" clip-rule="evenodd" d="M80.2041 63.5306C81.7755 63.5306 82.8979 64.8775 82.8979 66.2245C82.8979 67.5714 81.551 68.9184 80.2041 68.9184C78.6326 68.9184 77.5102 67.5714 77.5102 66.2245C77.5102 64.8775 78.6326 63.5306 80.2041 63.5306ZM95.2449 25.1429C96.8163 25.1429 97.9388 26.4898 97.9388 27.8367C97.9388 29.4082 96.5918 30.5306 95.2449 30.5306C93.6735 30.5306 92.551 29.1837 92.551 27.8367C92.551 26.2653 93.6735 25.1429 95.2449 25.1429ZM45.6326 30.5306H90.0816C90.9796 32.3265 93 33.6735 95.2449 33.6735C98.3877 33.6735 101.082 30.9796 101.082 27.8367C101.082 24.6939 98.3877 22 95.2449 22C92.7755 22 90.7551 23.5714 89.8571 25.5918H45.6326C41.3673 25.5918 38 28.7347 38 33V80.1428C38 84.4081 41.5918 88 45.6326 88H92.7755C97.0408 88 100.408 84.4081 100.408 80.1428V52.0816C100.408 47.8163 97.0408 44.449 92.7755 44.449H64.7143C60.449 44.449 56.8571 48.0408 56.8571 52.0816V60.8367C56.8571 64.8775 60.449 68.2449 64.7143 68.2449H74.5918C75.4898 70.4898 77.5102 71.8367 79.9796 71.8367C83.1224 71.8367 85.8163 69.1428 85.8163 66C85.8163 62.8571 83.1224 60.1633 79.9796 60.1633C77.7347 60.1633 75.7143 61.5102 74.8163 63.3061H64.7143C63.3673 63.3061 61.7959 62.4082 61.7959 60.8367V52.0816C61.7959 50.7347 63.1428 49.3877 64.7143 49.3877H92.7755C94.3469 49.3877 95.4694 50.5102 95.4694 52.0816V80.1428C95.4694 81.7143 94.3469 83.0612 92.7755 83.0612H45.6326C44.0612 83.0612 42.9388 81.7143 42.9388 80.1428V33C42.9388 31.6531 44.0612 30.5306 45.6326 30.5306Z" fill="black"/>
</g>
<mask id="mask10_2320_92325" style="mask-type:alpha" maskUnits="userSpaceOnUse" x="57" y="52" width="5" height="10">
<path fill-rule="evenodd" clip-rule="evenodd" d="M61.7958 52.3057V61.0608H57.0815V52.3057H61.7958Z" fill="white"/>
</mask>
<g mask="url(#mask10_2320_92325)">
<path fill-rule="evenodd" clip-rule="evenodd" d="M80.2041 63.5306C81.7755 63.5306 82.898 64.8775 82.898 66.2245C82.898 67.5714 81.551 68.9184 80.2041 68.9184C78.6326 68.9184 77.5102 67.5714 77.5102 66.2245C77.5102 64.8775 78.6326 63.5306 80.2041 63.5306ZM95.2449 25.1429C96.8163 25.1429 97.9388 26.4898 97.9388 27.8367C97.9388 29.4082 96.5918 30.5306 95.2449 30.5306C93.6735 30.5306 92.551 29.1837 92.551 27.8367C92.551 26.2653 93.6735 25.1429 95.2449 25.1429ZM45.6327 30.5306H90.0816C90.9796 32.3265 93 33.6735 95.2449 33.6735C98.3878 33.6735 101.082 30.9796 101.082 27.8367C101.082 24.6939 98.3878 22 95.2449 22C92.7755 22 90.7551 23.5714 89.8571 25.5918H45.6327C41.3674 25.5918 38 28.7347 38 33V80.1428C38 84.4081 41.5918 88 45.6327 88H92.7755C97.0408 88 100.408 84.4081 100.408 80.1428V52.0816C100.408 47.8163 97.0408 44.449 92.7755 44.449H64.7143C60.449 44.449 56.8571 48.0408 56.8571 52.0816V60.8367C56.8571 64.8775 60.449 68.2449 64.7143 68.2449H74.5918C75.4898 70.4898 77.5102 71.8367 79.9796 71.8367C83.1224 71.8367 85.8163 69.1428 85.8163 66C85.8163 62.8571 83.1224 60.1633 79.9796 60.1633C77.7347 60.1633 75.7143 61.5102 74.8163 63.3061H64.7143C63.3673 63.3061 61.7959 62.4081 61.7959 60.8367V52.0816C61.7959 50.7347 63.1429 49.3877 64.7143 49.3877H92.7755C94.3469 49.3877 95.4694 50.5102 95.4694 52.0816V80.1428C95.4694 81.7143 94.3469 83.0612 92.7755 83.0612H45.6327C44.0612 83.0612 42.9388 81.7143 42.9388 80.1428V33C42.9388 31.6531 44.0612 30.5306 45.6327 30.5306Z" fill="black"/>
</g>
<mask id="mask11_2320_92325" style="mask-type:alpha" maskUnits="userSpaceOnUse" x="45" y="22" width="57" height="12">
<path fill-rule="evenodd" clip-rule="evenodd" d="M95.2448 22C98.3877 22 101.082 24.6939 101.082 27.8367C101.082 30.9796 98.3877 33.6735 95.2448 33.6735C92.9999 33.6735 90.9795 32.3265 90.0816 30.5306H45.6326C45.4081 30.5306 45.4081 30.5306 45.1836 30.5306V25.5918C45.4081 25.5918 45.4081 25.5918 45.6326 25.5918H89.8571C90.755 23.5714 92.7754 22 95.2448 22ZM95.2448 25.1429C93.6734 25.1429 92.5509 26.4898 92.5509 27.8367C92.5509 29.4082 93.8979 30.5306 95.2448 30.5306C96.8162 30.5306 97.9387 29.1837 97.9387 27.8367C98.1632 26.2653 96.8162 25.1429 95.2448 25.1429Z" fill="white"/>
</mask>
<g mask="url(#mask11_2320_92325)">
<path fill-rule="evenodd" clip-rule="evenodd" d="M80.2041 63.5306C81.7755 63.5306 82.898 64.8775 82.898 66.2245C82.898 67.7959 81.551 68.9184 80.2041 68.9184C78.6326 68.9184 77.5102 67.5714 77.5102 66.2245C77.2857 64.6531 78.6326 63.5306 80.2041 63.5306ZM95.2449 25.1429C96.8163 25.1429 97.9388 26.4898 97.9388 27.8367C97.9388 29.4082 96.5918 30.5306 95.2449 30.5306C93.6735 30.5306 92.551 29.1837 92.551 27.8367C92.551 26.2653 93.6735 25.1429 95.2449 25.1429ZM45.6327 30.5306H90.0816C90.9796 32.3265 93 33.6735 95.2449 33.6735C98.3878 33.6735 101.082 30.9796 101.082 27.8367C101.082 24.6939 98.3878 22 95.2449 22C92.7755 22 90.7551 23.5714 89.8571 25.5918H45.6327C41.3673 25.5918 38 28.7347 38 33V80.1429C38 84.4082 41.5918 88 45.6327 88H92.7755C97.0408 88 100.408 84.4082 100.408 80.1429V52.3061C100.408 48.0408 97.0408 44.6735 92.7755 44.6735H64.9388C60.6735 44.6735 57.0816 48.2653 57.0816 52.3061V61.0612C57.0816 65.102 60.6735 68.4694 64.9388 68.4694H74.8163C75.7143 70.7143 77.7347 72.0612 80.2041 72.0612C83.3469 72.0612 86.0408 69.3673 86.0408 66.2245C86.0408 63.0816 83.3469 60.3878 80.2041 60.3878C77.9592 60.3878 75.9388 61.7347 75.0408 63.5306H64.9388C63.5918 63.5306 62.0204 62.6327 62.0204 61.0612V52.3061C62.0204 50.9592 63.3673 49.6122 64.9388 49.6122H93C94.5714 49.6122 95.6939 50.7347 95.6939 52.3061V80.3673C95.6939 81.9388 94.5714 83.2857 93 83.2857H45.8571C44.2857 83.2857 43.1633 81.9388 43.1633 80.3673V33.2245C42.9388 31.6531 44.0612 30.5306 45.6327 30.5306Z" fill="black"/>
</g>
<mask id="mask12_2320_92325" style="mask-type:alpha" maskUnits="userSpaceOnUse" x="64" y="60" width="23" height="13">
<path fill-rule="evenodd" clip-rule="evenodd" d="M80.2043 60.3877C83.3471 60.3877 86.041 63.0816 86.041 66.2244C86.041 69.3673 83.3471 72.0612 80.2043 72.0612C77.7349 72.0612 75.7145 70.4897 74.8165 68.4693H64.939V63.5306H75.041C75.939 61.7346 77.9594 60.3877 80.2043 60.3877ZM80.2043 63.5306C78.6328 63.5306 77.5104 64.8775 77.5104 66.2244C77.5104 67.5714 78.8573 68.9183 80.2043 68.9183C81.7757 68.9183 82.8981 67.5714 82.8981 66.2244C82.8981 64.8775 81.7757 63.5306 80.2043 63.5306Z" fill="white"/>
</mask>
<g mask="url(#mask12_2320_92325)">
<path fill-rule="evenodd" clip-rule="evenodd" d="M80.2041 63.5306C81.7755 63.5306 82.8979 64.8775 82.8979 66.2245C82.8979 67.5714 81.551 68.9184 80.2041 68.9184C78.6326 68.9184 77.5102 67.5714 77.5102 66.2245C77.5102 64.8775 78.6326 63.5306 80.2041 63.5306ZM95.2449 25.1429C96.8163 25.1429 97.9388 26.4898 97.9388 27.8367C97.9388 29.4082 96.5918 30.5306 95.2449 30.5306C93.6735 30.5306 92.551 29.1837 92.551 27.8367C92.551 26.2653 93.6735 25.1429 95.2449 25.1429ZM45.6326 30.5306H90.0816C90.9796 32.3265 93 33.6735 95.2449 33.6735C98.3877 33.6735 101.082 30.9796 101.082 27.8367C101.082 24.6939 98.3877 22 95.2449 22C92.7755 22 90.7551 23.5714 89.8571 25.5918H45.6326C41.3673 25.5918 38 28.7347 38 33V80.1429C38 84.4082 41.5918 88 45.6326 88H92.7755C97.0408 88 100.408 84.4082 100.408 80.1429V52.0816C100.408 47.8163 97.0408 44.449 92.7755 44.449H64.7143C60.449 44.449 56.8571 48.0408 56.8571 52.0816V60.8367C56.8571 64.8775 60.449 68.2449 64.7143 68.2449H74.5918C75.4898 70.4898 77.5102 71.8367 79.9796 71.8367C83.1224 71.8367 85.8163 69.1428 85.8163 66C85.8163 62.8571 83.1224 60.1633 79.9796 60.1633C77.7347 60.1633 75.7143 61.5102 74.8163 63.3061H64.7143C63.3673 63.3061 61.7959 62.4081 61.7959 60.8367V52.0816C61.7959 50.7347 63.1428 49.3877 64.7143 49.3877H92.7755C94.3469 49.3877 95.4694 50.5102 95.4694 52.0816V80.1429C95.4694 81.7143 94.3469 83.0612 92.7755 83.0612H45.6326C44.0612 83.0612 42.9388 81.7143 42.9388 80.1429V33C42.9388 31.6531 44.0612 30.5306 45.6326 30.5306Z" fill="black"/>
</g>
<path fill-rule="evenodd" clip-rule="evenodd" d="M125.327 61.7353C122.184 61.7353 119.714 59.2659 119.714 56.123C119.714 52.9802 122.184 50.5108 125.327 50.5108C128.47 50.5108 130.939 52.9802 130.939 56.123C130.714 59.2659 128.245 61.7353 125.327 61.7353ZM125.327 46.9189C120.163 46.9189 116.123 51.1843 116.123 56.123C116.123 61.2863 120.388 65.3271 125.327 65.3271C127.347 65.3271 129.367 64.6536 130.939 63.5312V70.2659C130.939 73.4087 128.47 75.8781 125.327 75.8781V79.6944C130.49 79.6944 134.531 75.4291 134.531 70.4904V56.3475C134.531 50.9598 130.265 46.9189 125.327 46.9189Z" fill="black"/>
<path fill-rule="evenodd" clip-rule="evenodd" d="M151.367 56.7962C151.367 59.9391 148.898 62.4085 145.755 62.4085C142.612 62.4085 140.143 59.9391 140.143 56.7962V48.2656H136.327V56.7962C136.327 61.9595 140.592 66.0003 145.531 66.0003C150.47 66.0003 154.735 61.735 154.735 56.7962V48.2656H150.918V56.7962" fill="black"/>
<path fill-rule="evenodd" clip-rule="evenodd" d="M181 47.3672C177.857 47.3672 175.163 48.9386 173.592 51.1835C171.796 48.9386 169.102 47.3672 166.184 47.3672C161.02 47.3672 156.979 51.6325 156.979 56.5713V65.1019H160.796V56.5713C160.796 53.4284 163.265 50.959 166.408 50.959C169.551 50.959 172.02 53.4284 172.02 56.5713V65.1019H175.837V56.5713C175.837 53.4284 178.306 50.959 181.449 50.959C184.592 50.959 187.061 53.4284 187.061 56.5713V65.1019H190.877V56.5713C190.428 51.6325 186.163 47.3672 181 47.3672Z" fill="black"/>
<path fill-rule="evenodd" clip-rule="evenodd" d="M192.449 56.7958V65.3264H196.265V56.7958C196.265 53.6529 198.734 51.1835 201.877 51.1835V47.3672C196.714 47.3672 192.449 51.6325 192.449 56.7958Z" fill="black"/>
<path fill-rule="evenodd" clip-rule="evenodd" d="M212.204 61.7353C209.061 61.7353 206.592 59.2659 206.592 56.123C206.592 52.9802 209.061 50.5108 212.204 50.5108C215.347 50.5108 217.816 52.9802 217.816 56.123C217.816 59.2659 215.347 61.7353 212.204 61.7353ZM212.204 46.9189C207.041 46.9189 203 51.1843 203 56.123C203 61.2863 207.265 65.3271 212.204 65.3271C217.367 65.3271 221.408 61.0618 221.408 56.123C221.633 50.9598 217.367 46.9189 212.204 46.9189Z" fill="black"/>
<path fill-rule="evenodd" clip-rule="evenodd" d="M232.633 61.7353C229.49 61.7353 227.021 59.2659 227.021 56.123C227.021 52.9802 229.49 50.5108 232.633 50.5108C235.776 50.5108 238.245 52.9802 238.245 56.123C238.245 59.2659 235.776 61.7353 232.633 61.7353ZM232.633 46.9189C227.47 46.9189 223.429 51.1843 223.429 56.123C223.429 61.2863 227.694 65.3271 232.633 65.3271C234.653 65.3271 236.674 64.6536 238.245 63.5312V64.8781H242.061V56.123C242.061 50.9598 237.796 46.9189 232.633 46.9189Z" fill="black"/>
<path fill-rule="evenodd" clip-rule="evenodd" d="M253.286 61.7346C250.143 61.7346 247.673 59.2652 247.673 56.1224C247.673 52.9795 250.143 50.5101 253.286 50.5101C256.428 50.5101 258.898 52.9795 258.898 56.1224C258.898 59.2652 256.204 61.7346 253.286 61.7346ZM258.898 38.3877V48.7142C257.326 47.5918 255.306 46.9183 253.286 46.9183C248.122 46.9183 244.082 51.1836 244.082 56.1224C244.082 61.2856 248.347 65.3265 253.286 65.3265C258.449 65.3265 262.49 61.0612 262.49 56.1224V38.3877H258.898V38.3877Z" fill="black"/>
</svg>
