<svg width="300" height="111" viewBox="0 0 300 111" fill="none" xmlns="http://www.w3.org/2000/svg">
<g clip-path="url(#clip0_2320_92264)">
<path d="M131.589 55.1487V67.8432C131.589 68.2112 131.497 68.5791 131.221 68.8551C130.945 69.1311 130.577 69.2231 130.209 69.2231C129.473 69.3151 128.829 68.7631 128.829 68.0272V55.3327C128.829 53.1249 128.461 51.5611 127.633 50.6412C126.713 49.6294 125.333 49.0774 123.954 49.1694C122.206 49.0774 120.55 49.8133 119.354 51.1012C118.066 52.573 117.422 54.5048 117.514 56.4366V67.8432C117.514 68.2112 117.422 68.5791 117.146 68.8551C116.87 69.1311 116.502 69.2231 116.135 69.2231C115.767 69.2231 115.399 69.1311 115.123 68.8551C114.847 68.5791 114.755 68.2112 114.755 67.8432V55.3327C114.755 53.1249 114.387 51.5611 113.559 50.6412C112.639 49.6294 111.259 49.0774 109.879 49.1694C108.131 49.0774 106.476 49.8133 105.28 51.1012C103.992 52.573 103.348 54.5048 103.44 56.4366V67.8432C103.44 68.2112 103.348 68.5791 103.072 68.8551C102.888 69.1311 102.52 69.315 102.152 69.315C101.416 69.315 100.772 68.7631 100.772 68.0272V48.2495C100.772 47.8816 100.864 47.5136 101.14 47.2376C101.416 46.9617 101.784 46.8697 102.152 46.8697C102.52 46.8697 102.796 46.9617 103.072 47.2376C103.348 47.5136 103.532 47.8816 103.44 48.2495V50.9172C103.992 49.6294 105.004 48.5255 106.2 47.8816C107.488 47.1456 108.867 46.7777 110.339 46.8697C113.743 46.8697 116.043 48.3415 117.054 51.1932C117.698 49.9053 118.71 48.8014 119.906 48.0655C121.286 47.3296 122.758 46.8697 124.322 46.8697C129.197 46.6857 131.589 49.5374 131.589 55.1487ZM156.058 64.7156C156.242 64.8996 156.334 65.1755 156.334 65.5435C156.334 66.1874 155.782 66.8313 154.77 67.4753C152.746 68.7631 150.355 69.407 147.963 69.407C145.019 69.591 142.167 68.4871 140.144 66.3714C138.212 64.3476 137.292 61.588 137.292 58.0924C137.292 56.0686 137.66 54.0448 138.58 52.1131C139.408 50.4573 140.604 49.0774 142.167 48.1575C143.731 47.2376 145.571 46.6857 147.503 46.7777C149.987 46.6857 152.47 47.6976 154.218 49.5374C155.966 51.6531 156.794 54.3208 156.702 56.9885C156.702 57.4484 156.61 57.8164 156.334 58.1844C155.966 58.4603 155.598 58.5523 155.138 58.5523H140.236C140.328 61.312 141.064 63.4277 142.351 64.8076C143.823 66.2794 145.939 67.1073 148.055 66.9233C149.159 66.9233 150.263 66.7393 151.274 66.3714C152.194 66.0034 153.114 65.5435 154.034 64.9916C154.402 64.6236 154.954 64.4396 155.414 64.3476C155.598 64.4396 155.874 64.5316 156.058 64.7156ZM142.443 50.9172C141.064 52.481 140.328 54.4128 140.236 56.4366H154.126C154.218 54.4128 153.574 52.481 152.286 50.9172C151.09 49.5374 149.343 48.8934 147.503 48.9854C145.571 48.8934 143.731 49.6294 142.443 50.9172ZM180.435 37.4868C180.711 37.7627 180.803 38.1307 180.803 38.4987V67.8432C180.895 68.5791 180.343 69.2231 179.607 69.2231H179.423C179.055 69.2231 178.687 69.1311 178.411 68.8551C178.135 68.5791 178.043 68.2112 178.043 67.8432V64.8996C177.491 66.2794 176.387 67.4753 175.1 68.2112C173.72 69.0391 172.064 69.407 170.5 69.315C168.752 69.315 166.913 68.8551 165.441 67.9352C163.969 66.9233 162.773 65.5435 162.037 63.9797C161.209 62.1399 160.749 60.0241 160.841 58.0004C160.749 55.9766 161.209 53.9528 162.037 52.1131C163.509 48.8014 166.913 46.6857 170.5 46.7777C172.064 46.6857 173.72 47.1456 175.1 47.9735C176.387 48.7095 177.399 49.9053 178.043 51.2852V38.5906C178.043 38.2227 178.135 37.8547 178.411 37.5788C178.687 37.3028 179.055 37.2108 179.423 37.2108C179.791 37.1188 180.159 37.3028 180.435 37.4868ZM176.203 64.6236C177.491 63.0598 178.043 60.852 178.043 58.0004C178.043 55.1487 177.399 52.941 176.203 51.3771C174.916 49.8133 172.984 48.8934 170.96 49.0774C168.936 48.9854 166.913 49.8133 165.625 51.3771C164.337 52.941 163.693 55.0567 163.693 57.9084C163.601 60.3001 164.245 62.5998 165.625 64.5316C168.292 67.4753 172.8 67.7512 175.744 65.0835C175.928 64.8996 176.111 64.8076 176.203 64.6236ZM193.13 41.2583C192.21 42.4542 191.75 44.018 191.842 45.5818V47.2376H197.269C197.637 47.2376 197.913 47.3296 198.189 47.5136C198.373 47.6976 198.557 48.0655 198.465 48.3415C198.465 48.6175 198.373 48.8934 198.189 49.1694C197.913 49.3534 197.637 49.5374 197.269 49.4454H191.842V67.8432C191.842 68.2112 191.75 68.5791 191.474 68.8551C191.198 69.1311 190.83 69.2231 190.462 69.2231C190.094 69.2231 189.726 69.1311 189.45 68.8551C189.174 68.5791 189.082 68.2112 189.082 67.8432V49.4454H185.678C185.402 49.4454 185.034 49.3534 184.85 49.1694C184.666 48.9854 184.483 48.7095 184.483 48.3415C184.483 47.6976 184.942 47.2376 185.494 47.2376H188.99V46.1338C188.898 43.926 189.542 41.7183 190.922 39.9705C192.302 38.4067 194.325 37.4868 196.441 37.4868L197.637 37.3948C198.833 37.3028 199.385 37.6708 199.385 38.4067C199.385 39.1426 198.925 39.5105 198.097 39.6025L196.901 39.6945C195.521 39.6945 194.141 40.2465 193.13 41.2583ZM205.272 67.9352C203.708 67.0153 202.512 65.6355 201.777 63.9797C200.949 62.1399 200.489 60.0241 200.489 58.0004C200.397 55.9766 200.857 53.8609 201.777 52.0211C202.604 50.4573 203.8 49.0774 205.272 48.1575C208.492 46.3177 212.539 46.3177 215.759 48.1575C217.323 49.0774 218.519 50.4573 219.254 52.1131C220.082 53.9528 220.542 56.0686 220.45 58.0924C220.542 60.1161 220.082 62.2319 219.254 64.0717C218.519 65.7275 217.231 67.1073 215.759 68.0272C212.539 69.867 208.584 69.867 205.272 67.9352ZM215.851 64.6236C217.139 63.0598 217.691 60.944 217.691 58.0004C217.875 55.6087 217.139 53.3089 215.759 51.4691C213.091 48.5255 208.676 48.3415 205.732 50.9172C205.548 51.1012 205.364 51.2852 205.18 51.4691C203.8 53.4009 203.156 55.7006 203.34 58.0924C203.34 60.944 203.984 63.1518 205.18 64.7156C206.468 66.2794 208.492 67.1073 210.515 67.0153C212.539 67.0153 214.563 66.1874 215.851 64.6236ZM226.706 68.8551C226.43 68.5791 226.338 68.2112 226.338 67.8432V38.5906C226.338 38.2227 226.43 37.8547 226.706 37.5788C226.982 37.3028 227.35 37.2108 227.717 37.2108C228.085 37.2108 228.453 37.3028 228.729 37.5788C229.005 37.8547 229.097 38.2227 229.097 38.5906V67.9352C229.189 68.6711 228.637 69.315 227.993 69.407H227.809C227.35 69.315 226.982 69.2231 226.706 68.8551ZM236.272 41.1663C235.905 40.7984 235.721 40.3384 235.721 39.7865C235.721 39.2346 235.905 38.6826 236.272 38.3147C237.1 37.5788 238.388 37.5788 239.216 38.3147C239.584 38.6826 239.768 39.2346 239.768 39.7865C239.768 40.3384 239.584 40.7984 239.216 41.1663C238.388 41.9023 237.1 41.9023 236.272 41.1663ZM236.732 68.8551C236.456 68.5791 236.364 68.2112 236.364 67.8432V48.2495C236.364 47.8816 236.456 47.5136 236.732 47.2376C237.008 46.9617 237.376 46.8697 237.744 46.8697C238.112 46.8697 238.48 46.9617 238.756 47.2376C239.032 47.5136 239.124 47.8816 239.124 48.2495V67.9352C239.124 68.3032 239.032 68.6711 238.756 68.9471C238.48 69.2231 238.112 69.315 237.744 69.315C237.376 69.315 237.008 69.1311 236.732 68.8551ZM249.703 67.9352C248.139 67.0153 246.943 65.6355 246.207 63.9797C245.287 62.1399 244.919 60.0241 244.919 58.0004C244.919 55.9766 245.287 53.8609 246.207 52.0211C246.943 50.4573 248.231 49.0774 249.703 48.1575C252.923 46.3177 256.97 46.3177 260.19 48.1575C261.753 49.0774 262.949 50.4573 263.685 52.1131C264.513 53.9528 264.973 55.9766 264.881 58.0924C264.881 60.1161 264.513 62.2319 263.685 64.0717C262.949 65.7275 261.661 67.1073 260.19 68.0272C256.97 69.775 252.923 69.775 249.703 67.9352ZM260.282 64.6236C261.569 63.0598 262.213 60.944 262.213 58.0004C262.397 55.6087 261.661 53.3089 260.282 51.4691C257.614 48.5255 253.198 48.3415 250.255 50.9172C250.071 51.1012 249.887 51.2852 249.703 51.4691C248.323 53.4009 247.679 55.7006 247.771 58.0004C247.771 60.852 248.415 63.0598 249.611 64.6236C250.899 66.1874 252.923 67.0153 254.946 66.9233C256.97 67.0153 258.902 66.1874 260.282 64.6236ZM61.033 83.2054L37.0238 74.0985C35.9199 73.6385 35.184 72.6267 35 71.4308C35 71.2468 35 71.1548 35 70.9709V30.3116C35.092 28.5638 36.4718 27.184 38.2196 27H38.5876C38.8635 27 39.5075 27 61.1249 35.555C82.6504 27 83.2944 27 83.5703 27H83.8463C85.5941 27.184 86.9739 28.5638 87.0659 30.4036V70.6949C87.0659 70.7869 87.0659 70.8789 87.0659 70.9709V71.3388C86.9739 72.6267 86.146 73.7305 84.9502 74.1905L84.6742 74.2825L61.033 83.2054ZM38.1276 71.7068L38.4036 71.7988L61.033 80.3538L83.8463 71.7068H83.9383C84.2142 71.6148 84.3982 71.3388 84.4902 70.9709V30.4956C84.4902 30.0356 84.1223 29.7597 83.7543 29.6677C82.0985 30.1276 69.404 35.0951 61.5849 38.2227L61.1249 38.4067L60.665 38.2227C52.7539 35.0951 40.1514 30.1276 38.4036 29.6677C38.0356 29.7597 37.6677 30.0356 37.6677 30.4036V70.9709C37.6677 71.3388 37.8517 71.5228 38.1276 71.7068ZM43.555 51.1932V56.8965L61.033 62.7838L78.5109 56.8965V51.1932L61.033 57.0805L43.555 51.1932ZM78.5109 41.2583C78.5109 40.7064 78.051 40.1545 77.407 40.1545H77.1311L76.9471 40.2464L60.941 45.5818L44.9348 40.2464L44.7509 40.1545H44.4749C43.923 40.1545 43.371 40.6144 43.371 41.2583V45.4898L60.849 51.3771L78.3269 45.4898L78.5109 41.2583ZM43.555 62.5078V67.2913C43.555 67.3833 43.555 67.4753 43.555 67.5673C43.555 67.9352 43.831 68.3032 44.1989 68.3952H44.2909L54.6857 71.8907V66.1874L43.555 62.5078ZM70.6918 65.1755L67.4722 66.1874V71.8907L77.959 68.3952C78.3269 68.2112 78.6029 67.8432 78.6029 67.4753V62.4159L70.6918 65.1755Z" fill="black"/>
</g>
<defs>
<clipPath id="clip0_2320_92264">
<rect width="229.973" height="56.2054" fill="white" transform="translate(35 27)"/>
</clipPath>
</defs>
</svg>
