<svg width="300" height="111" viewBox="0 0 300 111" fill="none" xmlns="http://www.w3.org/2000/svg">
<g clip-path="url(#clip0_2320_92317)">
<path d="M257.783 42.9335C253.981 38.4928 248.305 36.1455 241.371 36.1455C234.436 36.1455 228.761 38.4928 224.959 42.9335C221.835 46.5825 220.043 51.6693 220.043 56.8898C220.043 62.1103 221.835 67.197 224.959 70.846C228.761 75.2867 234.436 77.6339 241.371 77.6339C248.305 77.6339 253.981 75.2867 257.783 70.846C260.907 67.197 262.699 62.1103 262.699 56.8898C262.699 51.6693 260.907 46.5825 257.783 42.9335V42.9335ZM254.785 56.8898C254.785 63.1457 251.272 70.4512 241.37 70.4512C235.182 70.4512 227.956 66.8995 227.956 56.8898C227.956 50.6337 231.469 43.3283 241.37 43.3283C247.559 43.3283 254.786 46.8799 254.786 56.8898H254.785ZM208.263 37.0391V64.5993L185.991 37.0391H177.815V76.6504H185.727V49.09L207.999 76.6504H216.175V37.0391H208.263ZM155.394 54.2369V61.4195H166.315C165.829 64.0405 164.355 66.3749 162.197 67.9405C159.953 69.5832 157.007 70.4513 153.678 70.4513C141.425 70.4512 140.102 61.0769 140.102 57.0467C140.102 50.7183 143.589 43.3283 153.418 43.3283C159.494 43.3283 163.355 45.4549 165.031 49.9994L172.61 47.3651C169.913 39.9622 163.116 36.1454 153.157 36.1454C147.787 36.1454 142.795 37.8399 139.1 40.9175C134.579 44.6821 132.189 50.4219 132.189 57.5164C132.189 67.5302 138.721 77.6344 153.312 77.6344C159.587 77.6344 164.815 75.741 168.431 72.159C172.054 68.5706 173.968 63.3762 173.968 57.1367V54.2369H155.394ZM61.1486 53.4615L50.9399 51.9585C47.3716 51.3501 45.56 50.0974 45.56 48.2357C45.56 44.354 50.6216 43.3283 53.2982 43.3283C59.7955 43.3283 64.1794 45.4696 65.0747 49.3919L72.6121 47.1812C71.1373 40.3077 63.9377 36.1455 54.0279 36.1455C49.1495 36.1455 45.0376 37.3032 42.137 39.4932C39.2003 41.7104 37.6477 44.8771 37.6477 48.6513C37.6477 57.5453 46.8859 59.07 49.9225 59.5711L59.9267 60.9859C64.2792 61.7299 66.1387 63.0308 66.1387 65.335C66.1387 69.1072 61.5574 70.4512 57.2701 70.4512C52.0575 70.4512 45.4296 69.1885 44.1743 62.9768L36.6304 65.1898C38.3717 73.0468 46.0194 77.6339 56.8526 77.6339C67.6219 77.6339 74.0513 72.6273 74.0513 64.2411C74.0513 58.4314 69.5897 54.7039 61.1486 53.4615V53.4615ZM109.014 45.3186L105.099 53.1506L128.582 53.1501V45.3201L109.014 45.3186ZM116.845 29.6577L112.931 37.4849L128.582 37.4845V29.6572L116.845 29.6577V29.6577ZM101.183 60.9814L97.2676 68.8124L128.582 68.8119V60.9809L101.183 60.9814Z" fill="black"/>
<path d="M112.931 37.4883H77.6904V76.6426H93.3521L97.2676 68.812H85.5213V60.981H101.183L105.099 53.1501H85.5223L85.5203 45.3191H109.014L112.931 37.4883V37.4883Z" fill="black"/>
</g>
<defs>
<clipPath id="clip0_2320_92317">
<rect width="256.346" height="82.2266" fill="white" transform="translate(22 14)"/>
</clipPath>
</defs>
</svg>
