<svg width="300" height="111" viewBox="0 0 300 111" fill="none" xmlns="http://www.w3.org/2000/svg">
<path d="M96.163 60.2297L60.6442 43.1147C60.6016 43.0942 60.5657 43.062 60.5405 43.0219C60.5153 42.9819 60.5019 42.9355 60.5019 42.8882V42.2352C60.5021 42.1687 60.5286 42.1049 60.5757 42.0579C60.6228 42.0109 60.6866 41.9845 60.7531 41.9844H99.3052V34.0293H60.7531C58.5775 34.0318 56.4918 34.8972 54.9534 36.4356C53.4151 37.974 52.5498 40.0598 52.5474 42.2353V42.8883C52.5524 44.4316 52.9903 45.9425 53.8112 47.2494C54.6321 48.5562 55.8031 49.6066 57.1911 50.2812L92.7105 67.3965C92.7528 67.417 92.7885 67.449 92.8134 67.4889C92.8384 67.5287 92.8516 67.5748 92.8515 67.6218V68.2744C92.8514 68.3408 92.8249 68.4045 92.7779 68.4515C92.7309 68.4985 92.6672 68.525 92.6007 68.5251H54.0481V76.4802H92.6004C94.776 76.4777 96.8618 75.6124 98.4002 74.074C99.9385 72.5357 100.804 70.4499 100.806 68.2744V67.6214C100.801 66.0783 100.364 64.5676 99.5427 63.2609C98.7219 61.9543 97.551 60.9041 96.163 60.2297V60.2297Z" fill="black"/>
<path d="M241.549 60.0724L230.102 52.3832L245.03 34.028H234.78L220.215 51.9362H206.045V34.0273H198.09V76.4772H206.045V59.8976L223.995 59.8928H227.013L237.115 66.6769C237.149 66.6998 237.177 66.7307 237.196 66.767C237.216 66.8033 237.226 66.8439 237.226 66.885V76.4772H245.181V66.8842C245.182 65.5378 244.851 64.2118 244.218 63.0236C243.584 61.8355 242.668 60.8219 241.549 60.0724V60.0724Z" fill="black"/>
<path d="M182.779 43.5856C182.779 43.6339 182.769 43.6817 182.747 43.7251C182.726 43.7685 182.695 43.8064 182.656 43.8357L167.126 55.8506L151.596 43.8365C151.557 43.8071 151.526 43.7691 151.504 43.7256C151.483 43.6821 151.472 43.6342 151.472 43.5856V34.0273H143.648V43.5856C143.652 44.8282 143.939 46.0537 144.486 47.1693C145.033 48.2849 145.827 49.2614 146.808 50.0249L163.214 62.7154V76.4772H171.039V62.7154L187.445 50.0243C188.425 49.2606 189.219 48.2841 189.766 47.1687C190.313 46.0533 190.6 44.828 190.604 43.5856V34.0273H182.779V43.5856Z" fill="black"/>
<path d="M116.037 68.3135V34.0273H108.212V68.3135C108.214 70.472 109.073 72.5414 110.599 74.0677C112.125 75.5939 114.195 76.4524 116.353 76.4547H150.9V68.6303H116.353C116.311 68.6303 116.27 68.622 116.232 68.6061C116.193 68.5901 116.158 68.5668 116.129 68.5374C116.1 68.508 116.076 68.473 116.061 68.4346C116.045 68.3962 116.037 68.355 116.037 68.3135V68.3135Z" fill="black"/>
</svg>
