<svg width="300" height="111" viewBox="0 0 300 111" fill="none" xmlns="http://www.w3.org/2000/svg">
<path d="M160.889 45.2924C163.961 45.2924 166.451 42.9101 166.451 39.9714C166.451 37.0327 163.961 34.6504 160.889 34.6504C157.817 34.6504 155.327 37.0327 155.327 39.9714C155.327 42.9101 157.817 45.2924 160.889 45.2924Z" fill="black"/>
<path d="M61.9531 49.002H62.4608L61.9531 40.0752C59.1606 38.5535 55.2004 37.7927 52.1033 37.7927C45.1475 37.7927 39.5625 41.3432 39.5625 48.0383C39.5625 59.0954 56.9774 58.5374 56.9774 67.7179C56.9774 72.0798 53.9311 73.8043 51.037 73.8043C45.4013 73.8043 41.7965 68.9352 40.121 62.3415H39.6133L40.121 71.7755C42.9135 73.2971 47.3307 74.3115 50.9863 74.3115C57.7898 74.3115 64.0348 70.8625 64.0348 63.0516C64.0348 51.538 46.6199 51.6902 46.6199 43.017C46.6199 39.6694 49.2092 38.2999 52.154 38.2999C56.9266 38.2999 60.2776 43.5242 61.9531 49.002ZM84.3111 51.9945V68.4787C83.2956 69.3409 81.8232 70.5075 79.4877 70.5075C77.659 70.5075 76.746 69.2902 76.746 67.3121V47.9368H75.8321L65.2705 49.1541V49.6613C67.9615 49.9149 68.2661 50.1178 68.2661 51.9945V66.7035C68.2661 72.2827 71.4657 74.3115 75.2219 74.3115C78.9292 74.3115 81.9755 72.0291 84.3111 68.9859H84.5649L84.768 74.3115H85.2757L95.7856 73.0942V72.587C93.0947 72.3334 92.79 72.1306 92.79 70.2539V47.9368H91.8752L80.3001 49.1541V49.6613C84.0055 49.9149 84.3111 50.1178 84.3111 51.9945V51.9945ZM107.226 51.6902H106.972L107.226 36.7783H106.718L95.7512 37.9956V38.5028C98.4421 38.7564 98.7467 38.9593 98.7467 40.836V74.0579H99.2545L103.367 71.2683C105.956 73.6522 109.104 74.3115 111.694 74.3115C118.802 74.3115 124.387 69.2902 124.387 61.1242C124.387 53.5161 120.579 47.9368 114.182 47.9368C111.135 47.9368 108.85 49.4077 107.226 51.6902ZM110.272 50.9801C113.166 50.9801 115.451 54.1248 115.451 61.53C115.451 67.9715 114.232 73.6015 110.983 73.6015C109.612 73.6015 107.226 73.0435 107.226 67.6164V52.1974C108.19 51.3858 109.206 50.9801 110.272 50.9801ZM126.461 52.2481L135.855 74.0579H140.272L148.243 52.5524C149.005 50.5743 149.564 49.4077 152.001 48.9513V48.4441H142.049V48.9513C147.533 49.2556 148.243 50.7265 147.533 52.7046L142.049 67.4643H141.948L136.109 52.7046C135.398 50.9294 135.601 49.2556 138.546 48.9513V48.4441H123.467V48.9513C125.04 49.1541 125.751 50.5743 126.462 52.2481H126.461ZM164.017 71.3697V47.9368H163.51L152.543 49.1541V49.6613C155.234 49.9149 155.538 50.1178 155.538 51.9945V71.3697C155.538 72.8406 155.234 73.0435 152.543 73.2971V73.8043H167.013V73.2971C164.322 73.0435 164.017 72.8406 164.017 71.3697ZM185.884 56.0521H186.392L185.884 49.5092C183.853 48.5455 180.604 47.9368 178.217 47.9368C171.414 47.9368 168.418 51.2844 168.418 55.342C168.418 64.5732 181.771 64.2689 181.771 70.2539C181.771 72.4856 180.147 73.8043 177.557 73.8043C173.698 73.8043 170.348 71.1669 168.672 65.689H168.164L168.723 72.5363C170.754 73.5507 174.663 74.3115 177.303 74.3115C183.802 74.3115 187.813 71.1669 187.813 66.3484C187.813 57.6752 174.815 57.9795 174.815 51.538C174.815 49.5599 175.983 48.4441 178.116 48.4441C181.416 48.4441 184.513 52.451 185.884 56.0521V56.0521ZM207.622 51.9945V68.4787C206.606 69.3409 205.134 70.5075 202.798 70.5075C200.97 70.5075 200.057 69.2902 200.057 67.3121V47.9368H199.143L188.582 49.1541V49.6613C191.273 49.9149 191.578 50.1178 191.578 51.9945V66.7035C191.578 72.2827 194.776 74.3115 198.533 74.3115C202.24 74.3115 205.286 72.0291 207.622 68.9859H207.876L208.079 74.3115H208.586L219.096 73.0942V72.587C216.405 72.3334 216.101 72.1306 216.101 70.2539V47.9368H215.187L203.611 49.1541V49.6613C207.317 49.9149 207.622 50.1178 207.622 51.9945V51.9945ZM242.215 70.6089V55.6971C242.316 51.3858 238.762 47.9368 232.467 47.9368C225.155 47.9368 221.043 53.3639 221.043 56.255C221.043 58.1824 222.617 58.8925 224.292 58.8925C226.171 58.8925 227.491 57.9288 227.491 56.7622C227.491 55.2913 224.495 54.7841 224.495 52.7553C224.495 50.7772 226.628 49.5599 228.76 49.5599C232.365 49.5599 233.736 52.2988 233.736 55.1392V60.2619C222.718 60.9213 220.281 65.1818 220.281 68.3265C220.281 71.6741 222.464 74.3115 226.323 74.3115C229.369 74.3115 231.908 72.7899 233.634 70.2539H233.736V70.8625C233.736 72.7392 235.056 74.3115 237.95 74.3115C240.844 74.3115 243.433 72.9928 245.515 71.319L245.464 70.9133C244.804 71.319 243.992 71.7755 243.383 71.7755C242.621 71.7755 242.215 71.319 242.215 70.6089V70.6089ZM233.736 60.7691V69.7467C233.076 70.1525 232.467 70.5582 231.553 70.5582C229.928 70.5582 228.913 69.3916 228.913 66.3991C228.913 62.5951 230.639 61.1749 233.736 60.7691V60.7691ZM257.58 71.3697V36.7783H257.072L246.105 37.9956V38.5028C248.796 38.7564 249.101 38.9593 249.101 40.836V71.3697C249.101 72.8406 248.796 73.0435 246.105 73.2971V73.8043H260.575V73.2971C257.884 73.0435 257.58 72.8406 257.58 71.3697Z" fill="black"/>
</svg>
