<svg width="300" height="111" viewBox="0 0 300 111" fill="none" xmlns="http://www.w3.org/2000/svg">
<path d="M122.553 42.3604C123.1 42.3604 123.485 42.8984 123.307 43.4155L111.425 78.0063C111.13 78.8648 110.321 79.4413 109.413 79.4413H98.9159C98.0068 79.4413 97.1981 78.8642 96.9036 78.0052L85.0437 43.415C84.8664 42.898 85.2511 42.3604 85.7983 42.3604H96.3137C96.7952 42.3604 97.2166 42.6834 97.3411 43.148L103.97 67.9019H104.357L111.01 43.1471C111.135 42.6831 111.556 42.3604 112.038 42.3604H122.553Z" fill="black"/>
<path d="M126.33 79.4413C125.743 79.4413 125.267 78.9657 125.267 78.3792V43.4225C125.267 42.8358 125.743 42.3604 126.33 42.3604H136.023C136.61 42.3604 137.086 42.8358 137.086 43.4225V78.3792C137.086 78.9657 136.61 79.4413 136.023 79.4413H126.33Z" fill="black"/>
<path d="M161.567 42.3605C162.155 42.3605 162.631 42.8359 162.631 43.4227V49.9892C162.631 50.5758 162.155 51.0514 161.567 51.0514H140.272C139.685 51.0514 139.209 50.5758 139.209 49.9892V43.4227C139.209 42.8359 139.685 42.3605 140.272 42.3605H161.567ZM144.116 34.5387C144.116 33.952 144.592 33.4766 145.179 33.4766H154.872C155.459 33.4766 155.935 33.952 155.935 34.5387V67.7813C155.935 68.5055 156.048 69.093 156.274 69.5437C156.515 69.9781 156.862 70.2921 157.313 70.4851C157.764 70.6622 158.304 70.7507 158.932 70.7507C159.384 70.7507 159.859 70.7105 160.359 70.6299C160.483 70.6067 160.6 70.5843 160.709 70.5629C161.153 70.4761 161.596 70.7564 161.689 71.1987L163.104 77.9428C163.219 78.4881 162.892 79.0286 162.351 79.1657C161.937 79.2705 161.459 79.3867 160.915 79.514C159.899 79.7554 158.683 79.9082 157.265 79.9726C154.493 80.1013 152.116 79.7795 150.134 79.007C148.168 78.2184 146.662 76.9952 145.614 75.3375C144.583 73.6799 144.084 71.5957 144.116 69.0849V34.5387Z" fill="black"/>
<path d="M178.222 79.9719C175.483 79.9719 172.993 79.2639 170.754 77.8474C168.514 76.4312 166.725 74.3068 165.388 71.4742C164.05 68.6416 163.381 65.1249 163.381 60.9244C163.381 56.5629 164.074 52.9739 165.46 50.1574C166.846 47.3409 168.659 45.2568 170.899 43.9048C173.155 42.5529 175.58 41.877 178.174 41.877C180.124 41.877 181.792 42.2149 183.178 42.8909C184.563 43.5507 185.707 44.4037 186.61 45.4498C187.512 46.4961 188.197 47.5824 188.664 48.7089H188.906V43.4219C188.906 42.8352 189.382 42.3598 189.97 42.3598H199.662C200.249 42.3598 200.726 42.8352 200.726 43.4219V78.3787C200.726 78.9652 200.249 79.4408 199.662 79.4408H190.09C189.503 79.4408 189.027 78.9652 189.027 78.3787V73.4296H188.664C188.165 74.5723 187.456 75.6426 186.537 76.6404C185.619 77.6383 184.467 78.4431 183.081 79.0545C181.711 79.6661 180.092 79.9719 178.222 79.9719ZM182.331 70.7742C183.766 70.7742 184.99 70.3717 186.005 69.5671C187.021 68.7461 187.802 67.5954 188.35 66.1148C188.898 64.6341 189.172 62.8959 189.172 60.9003C189.172 58.8724 188.898 57.1261 188.35 55.6616C187.818 54.1971 187.037 53.0704 186.005 52.2819C184.99 51.4933 183.766 51.099 182.331 51.099C180.865 51.099 179.624 51.5014 178.609 52.306C177.594 53.1107 176.82 54.2453 176.289 55.7099C175.773 57.1745 175.515 58.9047 175.515 60.9003C175.515 62.8959 175.781 64.6341 176.313 66.1148C176.845 67.5954 177.61 68.7461 178.609 69.5671C179.624 70.3717 180.865 70.7742 182.331 70.7742Z" fill="black"/>
<path d="M213.895 30C214.481 30 214.958 30.4756 214.958 31.0622V78.3793C214.958 78.9657 214.481 79.4414 213.895 79.4414H204.202C203.614 79.4414 203.138 78.9657 203.138 78.3793V31.0622C203.138 30.4756 203.614 30 204.202 30H213.895Z" fill="black"/>
</svg>
