<svg xmlns="http://www.w3.org/2000/svg" viewBox="0 0 332.59 61.91"><defs><style>.cls-1{fill:#0f1623;}</style></defs><g id="Layer_1" data-name="Layer 1"><g id="icon"><path id="With_border_2_1mm_full" data-name="With border 2+1mm full" class="cls-1" d="M33.78.67l2.42,4.2a3.32,3.32,0,0,1,0,3.34L24.26,28.85a7.36,7.36,0,0,0,6.37,11l.5,0a8.28,8.28,0,0,0,1-.13h0a.81.81,0,0,1,.86.36,4.06,4.06,0,0,1,.53,1.36A4,4,0,0,1,29.4,46.2H7.58a1.12,1.12,0,0,1-1-1.67L31.85.67A1.12,1.12,0,0,1,33.78.67Z"/><path id="With_border_2_1mm_full-2" data-name="With border 2+1mm full" class="cls-1" d="M.4,55.38l2.42-4.2a3.36,3.36,0,0,1,2.9-1.67l23.84,0a7.36,7.36,0,0,0,6.38-11l-.29-.42a5.91,5.91,0,0,0-.62-.8h0a.82.82,0,0,1-.11-.92,4.12,4.12,0,0,1,.91-1.14A4,4,0,0,1,42,36.4L52.92,55.3A1.11,1.11,0,0,1,52,57l-50.6.08A1.11,1.11,0,0,1,.4,55.38Z"/><path id="With_border_2_1mm_full-3" data-name="With border 2+1mm full" class="cls-1" d="M64.47,56.93H59.62a3.35,3.35,0,0,1-2.9-1.67L44.82,34.6a7.35,7.35,0,0,0-12.74,0l-.23.45a9.71,9.71,0,0,0-.38.94h0a.82.82,0,0,1-.74.56,4,4,0,0,1-3.5-6.17l10.91-18.9a1.12,1.12,0,0,1,1.93,0L65.43,55.26A1.11,1.11,0,0,1,64.47,56.93Z"/></g><g id="reviewpad_outlines" data-name="reviewpad outlines"><path class="cls-1" d="M97.86,26.16a5.69,5.69,0,0,0-2.36-.61,4.72,4.72,0,0,0-3.63,1.54,5.37,5.37,0,0,0-1.54,3.79V48.37H85.6V30.88a10.21,10.21,0,0,1,1.51-5.44,10.41,10.41,0,0,1,4.15-3.85,9.84,9.84,0,0,1,4.24-.93,9.22,9.22,0,0,1,3.46.66,13.51,13.51,0,0,1,3.47,2.14Z"/><path class="cls-1" d="M106.05,36.71a4.89,4.89,0,0,0,1,2.75,10.33,10.33,0,0,0,2.22,2.42,8.47,8.47,0,0,0,5.39,1.81q4.89,0,8-4.72l4.18,2.47a15.57,15.57,0,0,1-5.28,5.33,13.13,13.13,0,0,1-6.87,1.87,13.39,13.39,0,0,1-5.33-1.07,14,14,0,0,1-7.45-7.45,13.39,13.39,0,0,1-1.07-5.33A13.95,13.95,0,0,1,104.84,25a12.8,12.8,0,0,1,4.43-3A14.21,14.21,0,0,1,120,22a12.71,12.71,0,0,1,4.43,3,13.45,13.45,0,0,1,4.07,9.67,14.11,14.11,0,0,1-.17,2.09Zm4.35-10.28A8.5,8.5,0,0,0,107.24,29a5.74,5.74,0,0,0-1.19,3.44h17.16A5.79,5.79,0,0,0,122,29a8.67,8.67,0,0,0-3.16-2.61,9.55,9.55,0,0,0-8.47,0Z"/><path class="cls-1" d="M143.44,48.37h-4.67L127.94,20.88h5.22l8,20.07,7.92-20.07h5.22Z"/><path class="cls-1" d="M158.32,16.18a2.53,2.53,0,0,1,1.78-4.32,2.53,2.53,0,1,1,0,5.06A2.44,2.44,0,0,1,158.32,16.18Zm-.47,32.19V20.88h4.62V48.37Z"/><path class="cls-1" d="M170.11,36.71a5,5,0,0,0,1,2.75,10.15,10.15,0,0,0,2.23,2.42,8.45,8.45,0,0,0,5.39,1.81q4.89,0,8-4.72l4.18,2.47a15.57,15.57,0,0,1-5.28,5.33,13.13,13.13,0,0,1-6.87,1.87,13.48,13.48,0,0,1-5.34-1.07,13.76,13.76,0,0,1-4.45-3,14,14,0,0,1-3-4.45,13.57,13.57,0,0,1-1.07-5.33A13.9,13.9,0,0,1,168.9,25a12.62,12.62,0,0,1,4.43-3,14.21,14.21,0,0,1,10.72,0,12.67,12.67,0,0,1,4.42,3,13.41,13.41,0,0,1,4.07,9.67,14,14,0,0,1-.16,2.09Zm4.34-10.28A8.59,8.59,0,0,0,171.29,29a5.73,5.73,0,0,0-1.18,3.44h17.15A5.73,5.73,0,0,0,186.08,29a8.59,8.59,0,0,0-3.16-2.61,9.55,9.55,0,0,0-8.47,0Z"/><path class="cls-1" d="M223.77,48.37H219l-5-12.43-5,12.43H204.2L193.09,20.88h5.39L206.56,41l4.73-11.61-3.41-8.46h5.39L221.35,41l8.09-20.07h5.33Z"/><path class="cls-1" d="M246.21,47.85a10.85,10.85,0,0,1-3.8-3.22V60.08h-4.89V21.54h4.89v3.85A13.32,13.32,0,0,1,246.48,22a10.41,10.41,0,0,1,5-1.26,13.61,13.61,0,0,1,5.36,1.07,12.87,12.87,0,0,1,4.43,3.05,14.39,14.39,0,0,1,3,4.54,13.74,13.74,0,0,1,1.07,5.41,13.54,13.54,0,0,1-1.07,5.39,14.49,14.49,0,0,1-3,4.51,13.67,13.67,0,0,1-4.43,3,13.29,13.29,0,0,1-5.36,1.1A12,12,0,0,1,246.21,47.85ZM248,26.46a8.36,8.36,0,0,0-2.86,1.95,9.68,9.68,0,0,0-1.93,2.94,8.75,8.75,0,0,0-.71,3.49,8.59,8.59,0,0,0,.71,3.47,9.78,9.78,0,0,0,1.93,2.91,8.73,8.73,0,0,0,2.86,2,8.79,8.79,0,0,0,6.92,0,8.73,8.73,0,0,0,2.86-2,9.33,9.33,0,0,0,1.9-2.91,8.92,8.92,0,0,0,.69-3.47,9.09,9.09,0,0,0-.69-3.49,9.24,9.24,0,0,0-1.9-2.94,8.36,8.36,0,0,0-2.86-1.95,9,9,0,0,0-6.92,0Z"/><path class="cls-1" d="M290.3,48.37V44.19a13.62,13.62,0,0,1-4.07,3.24,10.35,10.35,0,0,1-4.89,1.21,13.62,13.62,0,0,1-9.79-4,13.18,13.18,0,0,1-3-4.43,13.84,13.84,0,0,1,0-10.72A13.67,13.67,0,0,1,281.34,21a11.58,11.58,0,0,1,9,4.18V21.54h4.95V48.37Zm-12.45-21.8A8.83,8.83,0,0,0,275,28.46a8.7,8.7,0,0,0-1.9,2.89,9.27,9.27,0,0,0-.68,3.49,9.09,9.09,0,0,0,.68,3.47,8.56,8.56,0,0,0,4.79,4.75,9.09,9.09,0,0,0,3.49.69,9,9,0,0,0,6.32-2.58,8.78,8.78,0,0,0,1.9-2.86,8.92,8.92,0,0,0,.69-3.47,9.09,9.09,0,0,0-.69-3.49,8.7,8.7,0,0,0-1.9-2.89,9,9,0,0,0-6.32-2.58A9.09,9.09,0,0,0,277.85,26.57Z"/><path class="cls-1" d="M321,48.37V44.13a13.06,13.06,0,0,1-4.15,3.3,10.89,10.89,0,0,1-5,1.21,13.68,13.68,0,0,1-5.44-1.07,12.75,12.75,0,0,1-4.4-3,14.42,14.42,0,0,1-3-4.54,14.24,14.24,0,0,1,0-10.83,14.49,14.49,0,0,1,3-4.53,12.91,12.91,0,0,1,4.4-3.06,13.86,13.86,0,0,1,5.44-1.07,11.61,11.61,0,0,1,5.2,1.16A11.37,11.37,0,0,1,321,24.84v-13h4.84V48.37ZM308.45,26.18a8.36,8.36,0,0,0-2.86,1.95,9.85,9.85,0,0,0-1.93,2.95,8.89,8.89,0,0,0-.71,3.49A9,9,0,0,0,305.59,41a8.73,8.73,0,0,0,2.86,2,8.54,8.54,0,0,0,3.46.71A8.89,8.89,0,0,0,318.29,41a9,9,0,0,0,2.64-6.43,8.72,8.72,0,0,0-.72-3.49,9.82,9.82,0,0,0-1.92-2.95,8.39,8.39,0,0,0-2.89-1.95,9.08,9.08,0,0,0-3.49-.68A8.86,8.86,0,0,0,308.45,26.18Z"/></g></g></svg>