<svg width="2003" height="1686" viewBox="0 0 2003 1686" fill="none" xmlns="http://www.w3.org/2000/svg">
<path d="M1985.09 1631.85C1984.95 1648.87 1973.22 1663.07 1957.41 1667.04C1954.55 1667.75 1951.55 1668.15 1948.43 1668.15H1948.07C1927.83 1667.94 1911.56 1651.38 1911.77 1631.1C1912.09 1599.13 1886.31 1572.85 1854.34 1572.53H1853.73C1838.46 1572.53 1824.05 1578.39 1813.14 1589.09C1802.05 1599.93 1795.87 1614.44 1795.73 1629.93C1795.52 1650.06 1779.14 1666.23 1759.08 1666.23H1758.69C1756.65 1666.19 1754.65 1666.02 1752.68 1665.69C1735.34 1662.65 1722.25 1647.42 1722.43 1629.21C1722.75 1594.13 1736.77 1561.27 1761.84 1536.7C1767.7 1530.98 1774 1525.86 1780.69 1521.39L1780.94 1496.93C1781.58 1432.17 1756.98 1370.98 1711.64 1324.71C1666.3 1278.44 1605.65 1252.62 1540.85 1251.94L1467.51 1251.19L1468.15 1189.61L1468.51 1152.78L1469.01 1104.54L1542.35 1105.29C1646.3 1106.36 1743.61 1147.81 1816.38 1222.08C1889.15 1296.32 1928.63 1394.48 1927.59 1498.43L1927.34 1521.78C1962.56 1545.71 1985.56 1586.22 1985.09 1631.85Z" fill="#3B78D5"/>
<g opacity="0.2">
<path opacity="0.3" d="M1985.09 1631.85C1984.95 1648.87 1973.22 1663.07 1957.41 1667.04C1985.09 1595.27 1888.43 1505.87 1888.43 1505.87C1895.58 1371.77 1802.61 1258.23 1718.57 1207.28C1651.77 1166.77 1539.09 1147.6 1468.5 1152.78L1469 1104.54L1542.34 1105.29C1646.29 1106.36 1743.6 1147.81 1816.37 1222.08C1889.14 1296.32 1928.62 1394.48 1927.58 1498.43L1927.33 1521.78C1962.56 1545.71 1985.56 1586.22 1985.09 1631.85Z" fill="white"/>
</g>
<path d="M1948.45 1685.65C1948.22 1685.65 1948 1685.65 1947.77 1685.64C1933.35 1685.46 1919.85 1679.69 1909.76 1669.39C1899.63 1659.06 1894.14 1645.4 1894.29 1630.93C1894.51 1608.62 1876.57 1590.27 1854.26 1590.01H1853.75C1843.09 1590.01 1833.03 1594.12 1825.41 1601.59C1817.68 1609.16 1813.36 1619.3 1813.25 1630.12C1812.96 1659.68 1788.66 1683.74 1759.1 1683.74C1758.87 1683.74 1758.64 1683.74 1758.41 1683.73C1743.99 1683.55 1730.5 1677.78 1720.4 1667.48C1710.27 1657.15 1704.78 1643.49 1704.93 1629.02C1705.33 1589.27 1721.19 1552.05 1749.59 1524.22C1753.88 1520.02 1758.46 1516.05 1763.27 1512.35L1763.43 1496.77C1764.04 1436.66 1741.21 1379.92 1699.14 1336.98C1657.07 1294.05 1600.79 1270.07 1540.69 1269.46L1467.36 1268.71C1462.72 1268.66 1458.29 1266.77 1455.04 1263.46C1451.79 1260.14 1449.99 1255.67 1450.04 1251.03L1451.53 1104.37C1451.58 1099.73 1453.47 1095.3 1456.78 1092.05C1460.09 1088.8 1464.55 1086.97 1469.21 1087.05L1542.54 1087.8C1651.17 1088.9 1752.87 1132.24 1828.9 1209.83C1904.94 1287.42 1946.2 1389.98 1945.1 1498.61L1944.95 1512.95C1981.7 1541.46 2003.1 1585.3 2002.62 1632.04C2002.31 1661.6 1978.02 1685.65 1948.45 1685.65ZM1853.74 1555.01H1854.35C1854.41 1555.01 1854.47 1555.01 1854.53 1555.01C1896.17 1555.43 1929.7 1589.65 1929.28 1631.29C1929.23 1636.41 1931.17 1641.24 1934.75 1644.9C1938.33 1648.56 1943.13 1650.6 1948.24 1650.65C1948.3 1650.65 1948.36 1650.65 1948.43 1650.65C1958.93 1650.62 1967.5 1642.12 1967.6 1631.68C1967.99 1593.49 1949.26 1557.83 1917.5 1536.27C1912.65 1532.98 1909.77 1527.48 1909.83 1521.61L1910.07 1498.25C1911.08 1398.97 1873.36 1305.24 1803.87 1234.32C1734.38 1163.4 1641.43 1123.79 1542.15 1122.79L1486.32 1122.22L1485.19 1233.88L1541.02 1234.45C1610.47 1235.15 1675.5 1262.86 1724.12 1312.47C1772.74 1362.09 1799.12 1427.66 1798.41 1497.11L1798.16 1521.54C1798.1 1527.3 1795.21 1532.67 1790.43 1535.88C1784.55 1539.83 1779.05 1544.31 1774.07 1549.19C1752.35 1570.48 1740.22 1598.94 1739.91 1629.35C1739.86 1634.47 1741.8 1639.3 1745.38 1642.96C1748.96 1646.62 1753.75 1648.66 1758.87 1648.71C1758.93 1648.71 1759 1648.71 1759.06 1648.71C1769.56 1648.68 1778.13 1640.18 1778.23 1629.74C1778.43 1609.57 1786.48 1590.68 1800.89 1576.56C1815.11 1562.67 1833.87 1555.01 1853.74 1555.01Z" fill="#240C23"/>
<path d="M1632.92 1288.47C1627.45 1288.47 1622.06 1285.91 1618.65 1281.12C1613.04 1273.25 1614.88 1262.32 1622.75 1256.71C1646.06 1240.11 1658.86 1214.97 1660.81 1181.97C1662.36 1155.71 1656.2 1134.19 1656.14 1133.98C1653.44 1124.72 1658.75 1115 1668 1112.28C1677.26 1109.56 1686.96 1114.82 1689.7 1124.07C1690.02 1125.14 1697.48 1150.73 1695.81 1182.81C1693.52 1226.86 1675.27 1262.27 1643.05 1285.22C1639.98 1287.42 1636.43 1288.47 1632.92 1288.47Z" fill="#240C23"/>
<path d="M1737.74 1373.22C1728.94 1373.22 1721.37 1366.6 1720.37 1357.66C1719.3 1348.05 1726.22 1339.4 1735.83 1338.33C1805.32 1330.59 1824.49 1248.2 1824.68 1247.37C1826.79 1237.94 1836.14 1232 1845.57 1234.1C1855 1236.21 1860.94 1245.56 1858.84 1254.99C1858.6 1256.08 1852.67 1282.07 1835.61 1309.29C1812.19 1346.67 1779.02 1368.74 1739.7 1373.12C1739.04 1373.19 1738.38 1373.22 1737.74 1373.22Z" fill="#240C23"/>
<path d="M1817.05 1487.46C1801.98 1487.46 1787.05 1484.62 1772.49 1478.92C1763.49 1475.39 1759.05 1465.24 1762.58 1456.24C1766.11 1447.24 1776.25 1442.8 1785.26 1446.33C1811.89 1456.76 1839.62 1453.91 1867.69 1437.85C1890.02 1425.08 1904.19 1408.46 1904.33 1408.3C1910.55 1400.93 1921.58 1399.97 1928.97 1406.18C1936.36 1412.39 1937.34 1423.38 1931.16 1430.78C1930.45 1431.63 1913.54 1451.68 1886.17 1467.61C1863.46 1480.81 1840.11 1487.46 1817.05 1487.46Z" fill="#240C23"/>
<g opacity="0.2">
<path opacity="0.5" d="M1821.85 1531.83C1805.94 1548.85 1788.24 1567.41 1774.43 1585.97C1757.55 1608.68 1756.34 1638.93 1752.69 1665.68C1735.35 1662.64 1722.26 1647.41 1722.44 1629.2C1722.76 1594.12 1736.78 1561.26 1761.85 1536.69C1767.71 1530.97 1774.01 1525.85 1780.7 1521.38L1780.95 1496.92C1781.59 1432.16 1756.99 1370.97 1711.65 1324.7C1666.31 1278.43 1605.66 1252.61 1540.86 1251.93L1467.52 1251.18L1468.16 1189.6C1551.23 1191.96 1634.33 1202.83 1704.28 1248.42C1754.81 1281.35 1791.25 1318.62 1813.35 1374.94C1831.11 1420.23 1859.07 1492.03 1821.85 1531.83Z" fill="#240C23"/>
</g>
<path d="M17.5276 1631.85C17.6676 1648.87 29.3976 1663.07 45.2076 1667.04C48.0676 1667.75 51.0676 1668.15 54.1876 1668.15H54.5476C74.7876 1667.94 91.0576 1651.38 90.8476 1631.1C90.5276 1599.13 116.308 1572.85 148.278 1572.53H148.888C164.158 1572.53 178.568 1578.39 189.478 1589.09C200.568 1599.93 206.748 1614.44 206.888 1629.93C207.098 1650.06 223.478 1666.23 243.538 1666.23H243.928C245.968 1666.19 247.968 1666.02 249.938 1665.69C267.278 1662.65 280.368 1647.42 280.188 1629.21C279.868 1594.13 265.848 1561.27 240.778 1536.7C234.918 1530.98 228.618 1525.86 221.928 1521.39L221.678 1496.93C221.038 1432.17 245.638 1370.98 290.978 1324.71C336.318 1278.44 396.968 1252.62 461.768 1251.94L535.108 1251.19L534.468 1189.61L534.108 1152.78L533.608 1104.54L460.268 1105.29C356.318 1106.36 259.008 1147.81 186.238 1222.08C113.468 1296.32 73.9876 1394.48 75.0276 1498.43L75.2776 1521.78C40.0576 1545.71 17.0576 1586.22 17.5276 1631.85Z" fill="#3B78D5"/>
<g opacity="0.2">
<path opacity="0.3" d="M17.5276 1631.85C17.6676 1648.87 29.3976 1663.07 45.2076 1667.04C17.5276 1595.27 114.188 1505.87 114.188 1505.87C107.038 1371.77 200.008 1258.23 284.048 1207.28C350.848 1166.77 463.528 1147.6 534.118 1152.78L533.618 1104.54L460.278 1105.29C356.328 1106.36 259.018 1147.81 186.248 1222.08C113.478 1296.32 73.9976 1394.48 75.0376 1498.43L75.2876 1521.78C40.0576 1545.71 17.0576 1586.22 17.5276 1631.85Z" fill="white"/>
</g>
<path d="M54.1676 1685.65C24.5976 1685.65 0.307587 1661.6 0.00758701 1632.03C-0.462413 1585.3 20.9276 1541.46 57.6776 1512.95L57.5275 1498.61C56.4275 1389.98 97.6876 1287.42 173.728 1209.83C249.768 1132.24 351.458 1088.9 460.088 1087.8L533.418 1087.05C538.048 1087 542.528 1088.8 545.848 1092.05C549.168 1095.3 551.048 1099.73 551.098 1104.37L552.588 1251.03C552.638 1255.67 550.838 1260.14 547.588 1263.46C544.338 1266.78 539.908 1268.66 535.268 1268.71L461.938 1269.46C401.828 1270.07 345.558 1294.05 303.478 1336.98C261.408 1379.92 238.578 1436.66 239.188 1496.77L239.348 1512.35C244.158 1516.04 248.738 1520.01 253.028 1524.22C281.428 1552.05 297.288 1589.27 297.688 1629.02C297.838 1643.48 292.338 1657.14 282.218 1667.48C272.118 1677.78 258.628 1683.55 244.208 1683.73C243.978 1683.73 243.748 1683.74 243.518 1683.74C213.948 1683.74 189.658 1659.69 189.368 1630.12C189.258 1619.3 184.938 1609.17 177.208 1601.59C169.588 1594.13 159.528 1590.02 148.868 1590.02H148.358C126.048 1590.29 108.108 1608.63 108.328 1630.95C108.478 1645.41 102.978 1659.07 92.8576 1669.41C82.7576 1679.71 69.2676 1685.48 54.8476 1685.66C54.6176 1685.65 54.3876 1685.65 54.1676 1685.65ZM516.288 1122.23L460.458 1122.8C361.178 1123.81 268.228 1163.42 198.738 1234.33C129.248 1305.25 91.5276 1398.98 92.5376 1498.26L92.7775 1521.62C92.8375 1527.48 89.9576 1532.98 85.1076 1536.28C53.3476 1557.84 34.6275 1593.51 35.0075 1631.69C35.1075 1642.15 43.7076 1650.66 54.1676 1650.66H54.1275C54.2075 1650.66 54.2875 1650.66 54.3775 1650.66C59.4975 1650.61 64.2876 1648.57 67.8676 1644.91C71.4476 1641.25 73.3976 1636.42 73.3376 1631.3C72.9176 1589.66 106.448 1555.44 148.088 1555.02C148.148 1555.02 148.208 1555.02 148.268 1555.02H148.878C168.748 1555.02 187.508 1562.68 201.708 1576.59C216.118 1590.71 224.168 1609.59 224.368 1629.77C224.468 1640.23 233.068 1648.74 243.528 1648.74H243.468C243.558 1648.74 243.638 1648.74 243.728 1648.74C248.848 1648.69 253.638 1646.65 257.218 1642.99C260.798 1639.33 262.748 1634.5 262.688 1629.38C262.378 1598.97 250.248 1570.5 228.528 1549.22C223.548 1544.34 218.038 1539.86 212.168 1535.91C207.388 1532.69 204.498 1527.33 204.438 1521.57L204.188 1497.14C203.478 1427.69 229.868 1362.11 278.478 1312.5C327.098 1262.89 392.128 1235.18 461.578 1234.48L517.408 1233.91L516.288 1122.23Z" fill="#240C23"/>
<path d="M369.698 1288.47C366.188 1288.47 362.638 1287.42 359.558 1285.22C327.328 1262.27 309.088 1226.86 306.798 1182.81C305.128 1150.73 312.588 1125.14 312.908 1124.07C315.658 1114.8 325.388 1109.51 334.658 1112.27C343.908 1115.01 349.198 1124.73 346.468 1133.99C346.318 1134.51 340.258 1155.9 341.798 1181.97C343.748 1214.96 356.548 1240.11 379.858 1256.71C387.728 1262.32 389.568 1273.24 383.958 1281.12C380.558 1285.92 375.168 1288.47 369.698 1288.47Z" fill="#240C23"/>
<path d="M264.878 1373.22C264.228 1373.22 263.578 1373.18 262.918 1373.11C223.598 1368.73 190.438 1346.66 167.008 1309.28C149.948 1282.06 144.028 1256.07 143.778 1254.98C141.678 1245.55 147.618 1236.19 157.048 1234.09C166.458 1231.99 175.808 1237.91 177.928 1247.32C177.978 1247.54 183.058 1269.33 197.188 1291.53C214.938 1319.41 238.348 1335.16 266.788 1338.33C276.398 1339.4 283.318 1348.05 282.248 1357.66C281.258 1366.61 273.678 1373.22 264.878 1373.22Z" fill="#240C23"/>
<path d="M185.568 1487.46C162.508 1487.46 139.158 1480.81 116.458 1467.6C89.0876 1451.67 72.1676 1431.62 71.4676 1430.77C65.2676 1423.35 66.2576 1412.32 73.6776 1406.12C81.0876 1399.93 92.1076 1400.91 98.2976 1408.3C98.6276 1408.69 112.758 1425.16 134.928 1437.85C162.998 1453.91 190.728 1456.76 217.358 1446.33C226.368 1442.8 236.508 1447.24 240.038 1456.24C243.568 1465.24 239.128 1475.39 230.128 1478.92C215.578 1484.62 200.628 1487.46 185.568 1487.46Z" fill="#240C23"/>
<g opacity="0.2">
<path opacity="0.5" d="M180.768 1531.83C196.678 1548.85 214.378 1567.41 228.188 1585.97C245.068 1608.68 246.278 1638.93 249.928 1665.68C267.268 1662.64 280.358 1647.41 280.178 1629.2C279.858 1594.12 265.838 1561.26 240.768 1536.69C234.908 1530.97 228.608 1525.85 221.918 1521.38L221.668 1496.92C221.028 1432.16 245.628 1370.97 290.968 1324.7C336.308 1278.43 396.958 1252.61 461.758 1251.93L535.098 1251.18L534.458 1189.6C451.388 1191.96 368.288 1202.83 298.338 1248.42C247.808 1281.35 211.368 1318.62 189.268 1374.94C171.508 1420.23 143.548 1492.03 180.768 1531.83Z" fill="#240C23"/>
</g>
<path d="M511.106 413.188C503.26 417.718 493.233 415.032 488.703 407.186L390.313 236.769C385.783 228.923 388.47 218.896 396.316 214.366C404.162 209.836 414.189 212.523 418.719 220.369L517.109 390.786C521.639 398.632 518.952 408.658 511.106 413.188Z" fill="#240C23"/>
<path d="M378.551 265.587C423.833 265.587 460.541 228.879 460.541 183.597C460.541 138.316 423.833 101.607 378.551 101.607C333.269 101.607 296.561 138.316 296.561 183.597C296.561 228.879 333.269 265.587 378.551 265.587Z" fill="#3B78D5"/>
<g opacity="0.2">
<path opacity="0.5" d="M392.983 213.211C356.143 213.211 324.983 188.911 314.643 155.471C312.273 163.141 310.993 171.281 310.993 179.731C310.993 225.011 347.703 261.721 392.983 261.721C438.263 261.721 474.973 225.011 474.973 179.731C474.973 171.281 473.693 163.141 471.323 155.471C460.983 188.921 429.823 213.211 392.983 213.211Z" fill="#240C23"/>
</g>
<g opacity="0.6">
<path opacity="0.6" d="M366.174 178.709C381.439 178.709 393.814 168.613 393.814 156.159C393.814 143.705 381.439 133.609 366.174 133.609C350.908 133.609 338.534 143.705 338.534 156.159C338.534 168.613 350.908 178.709 366.174 178.709Z" fill="#FEFFFF"/>
</g>
<path d="M378.551 281.987C324.301 281.987 280.161 237.847 280.161 183.597C280.161 129.347 324.301 85.207 378.551 85.207C432.801 85.207 476.941 129.347 476.941 183.597C476.941 237.857 432.801 281.987 378.551 281.987ZM378.551 118.007C342.381 118.007 312.961 147.437 312.961 183.597C312.961 219.767 342.391 249.187 378.551 249.187C414.711 249.187 444.141 219.757 444.141 183.597C444.141 147.427 414.721 118.007 378.551 118.007Z" fill="#240C23"/>
<path d="M1491.52 413.192C1499.37 417.722 1509.39 415.036 1513.92 407.19L1612.31 236.773C1616.84 228.927 1614.16 218.9 1606.31 214.37C1598.47 209.84 1588.44 212.527 1583.91 220.373L1485.52 390.79C1480.99 398.636 1483.68 408.662 1491.52 413.192Z" fill="#240C23"/>
<path d="M1624.08 265.589C1669.36 265.589 1706.07 228.881 1706.07 183.599C1706.07 138.318 1669.36 101.609 1624.08 101.609C1578.79 101.609 1542.09 138.318 1542.09 183.599C1542.09 228.881 1578.79 265.589 1624.08 265.589Z" fill="#3B78D5"/>
<g opacity="0.2">
<path opacity="0.5" d="M1638.51 213.213C1601.67 213.213 1570.51 188.913 1560.17 155.473C1557.8 163.143 1556.52 171.283 1556.52 179.733C1556.52 225.013 1593.23 261.723 1638.51 261.723C1683.79 261.723 1720.5 225.013 1720.5 179.733C1720.5 171.283 1719.22 163.143 1716.85 155.473C1706.51 188.923 1675.35 213.213 1638.51 213.213Z" fill="#240C23"/>
</g>
<g opacity="0.6">
<path opacity="0.6" d="M1611.7 178.711C1626.96 178.711 1639.34 168.615 1639.34 156.161C1639.34 143.707 1626.96 133.611 1611.7 133.611C1596.43 133.611 1584.06 143.707 1584.06 156.161C1584.06 168.615 1596.43 178.711 1611.7 178.711Z" fill="#FEFFFF"/>
</g>
<path d="M1624.08 281.989C1569.83 281.989 1525.69 237.849 1525.69 183.599C1525.69 129.349 1569.83 85.209 1624.08 85.209C1678.33 85.209 1722.47 129.349 1722.47 183.599C1722.47 237.859 1678.33 281.989 1624.08 281.989ZM1624.08 118.009C1587.91 118.009 1558.49 147.439 1558.49 183.599C1558.49 219.769 1587.92 249.189 1624.08 249.189C1660.24 249.189 1689.67 219.759 1689.67 183.599C1689.67 147.429 1660.25 118.009 1624.08 118.009Z" fill="#240C23"/>
<path d="M1926.53 859.985C1926.53 903.255 1891.13 938.655 1847.86 938.655H1771C1727.73 938.655 1692.33 903.255 1692.33 859.985V685.295C1692.33 642.025 1727.73 606.625 1771 606.625H1847.86C1891.13 606.625 1926.53 642.025 1926.53 685.295V859.985Z" fill="#3B78D5"/>
<g opacity="0.2">
<path opacity="0.5" d="M1847.86 817.266H1771C1727.73 817.266 1692.33 781.866 1692.33 738.596V863.256C1692.33 906.526 1727.73 941.926 1771 941.926H1847.86C1891.13 941.926 1926.53 906.526 1926.53 863.256V738.596C1926.53 781.866 1891.13 817.266 1847.86 817.266Z" fill="#240C23"/>
</g>
<path d="M1847.86 956.155H1771C1717.97 956.155 1674.83 913.015 1674.83 859.985V685.295C1674.83 632.265 1717.97 589.125 1771 589.125H1847.86C1900.89 589.125 1944.03 632.265 1944.03 685.295V859.985C1944.03 913.005 1900.89 956.155 1847.86 956.155ZM1771 624.115C1737.27 624.115 1709.83 651.555 1709.83 685.285V859.975C1709.83 893.705 1737.27 921.145 1771 921.145H1847.86C1881.59 921.145 1909.03 893.705 1909.03 859.975V685.285C1909.03 651.555 1881.59 624.115 1847.86 624.115H1771Z" fill="#240C23"/>
<path d="M310.291 859.985C310.291 903.255 274.891 938.655 231.621 938.655H154.761C111.491 938.655 76.0908 903.255 76.0908 859.985V685.295C76.0908 642.025 111.491 606.625 154.761 606.625H231.621C274.891 606.625 310.291 642.025 310.291 685.295V859.985Z" fill="#3B78D5"/>
<path d="M231.621 956.155H154.761C101.731 956.155 58.5908 913.015 58.5908 859.985V685.295C58.5908 632.265 101.731 589.125 154.761 589.125H231.621C284.651 589.125 327.791 632.265 327.791 685.295V859.985C327.791 913.005 284.651 956.155 231.621 956.155ZM154.761 624.115C121.031 624.115 93.5908 651.555 93.5908 685.285V859.975C93.5908 893.705 121.031 921.145 154.761 921.145H231.621C265.351 921.145 292.791 893.705 292.791 859.975V685.285C292.791 651.555 265.351 624.115 231.621 624.115H154.761Z" fill="#240C23"/>
<g opacity="0.2">
<path opacity="0.5" d="M232.081 817.266H155.221C111.951 817.266 76.5508 781.866 76.5508 738.596V863.256C76.5508 906.526 111.951 941.926 155.221 941.926H232.081C275.351 941.926 310.751 906.526 310.751 863.256V738.596C310.751 781.866 275.341 817.266 232.081 817.266Z" fill="#240C23"/>
</g>
<path d="M1823.67 952.545C1823.67 1380.4 1455.49 1654.3 1001.31 1654.3C547.131 1654.3 178.951 1380.4 178.951 952.545C178.951 524.695 547.131 177.855 1001.31 177.855C1455.49 177.855 1823.67 524.695 1823.67 952.545Z" fill="white"/>
<path d="M1652.99 940.146C1652.99 1261.2 1361.23 1407.01 1001.31 1407.01C641.391 1407.01 349.631 1261.2 349.631 940.146C349.631 619.096 641.391 358.836 1001.31 358.836C1361.23 358.836 1652.99 619.096 1652.99 940.146Z" fill="#240C23"/>
<path d="M1001.31 1671.8C772.141 1671.8 561.691 1602.76 408.721 1477.4C330.761 1413.51 269.901 1337.11 227.831 1250.33C183.791 1159.47 161.451 1059.28 161.451 952.545C161.451 845.475 183.711 741.605 227.611 643.835C269.981 549.475 330.611 464.755 407.811 392.025C484.941 319.365 574.751 262.325 674.731 222.485C778.181 181.265 888.061 160.365 1001.31 160.365C1114.56 160.365 1224.43 181.265 1327.89 222.485C1427.87 262.325 1517.67 319.365 1594.81 392.025C1672.02 464.755 1732.65 549.485 1775.01 643.835C1818.91 741.615 1841.17 845.475 1841.17 952.545C1841.17 1059.28 1818.84 1159.47 1774.79 1250.33C1732.72 1337.11 1671.86 1413.51 1593.9 1477.4C1440.93 1602.76 1230.48 1671.8 1001.31 1671.8ZM1001.31 195.355C557.511 195.355 196.451 535.025 196.451 952.545C196.451 1349.03 534.941 1636.8 1001.31 1636.8C1467.68 1636.8 1806.17 1349.03 1806.17 952.545C1806.17 535.025 1445.11 195.355 1001.31 195.355Z" fill="#240C23"/>
<g filter="url(#filter0_dd_2320_92121)">
<path d="M641.744 645.405L658.621 674.477C660.656 678.023 661.726 682.04 661.726 686.128C661.726 690.216 660.656 694.233 658.621 697.779L575.65 840.964C571.263 848.716 568.98 857.48 569.027 866.387C569.074 875.294 571.45 884.034 575.918 891.739C580.387 899.444 586.794 905.846 594.502 910.309C602.21 914.773 610.951 917.143 619.858 917.184H623.451C625.701 917.184 627.988 916.857 630.311 916.204C631.445 915.957 632.629 916.065 633.7 916.513C634.771 916.961 635.679 917.727 636.3 918.708C638.994 923.012 640.457 927.972 640.529 933.048C640.602 938.125 639.28 943.124 636.71 947.503C634.139 951.881 630.417 955.47 625.948 957.881C621.479 960.291 616.436 961.43 611.365 961.174H459.904C458.569 961.19 457.254 960.854 456.089 960.202C454.925 959.549 453.952 958.602 453.269 957.456C452.585 956.309 452.215 955.003 452.194 953.668C452.174 952.333 452.505 951.017 453.153 949.85L628.242 644.969C628.951 643.788 629.962 642.817 631.171 642.158C632.381 641.499 633.744 641.174 635.121 641.219C636.498 641.263 637.838 641.675 639.002 642.411C640.166 643.146 641.113 644.18 641.744 645.405V645.405Z" fill="#4FFFFF"/>
<path d="M409.598 1025.09L426.475 996.018C428.522 992.405 431.502 989.408 435.103 987.339C438.703 985.27 442.794 984.207 446.946 984.259H612.453C621.356 984.204 630.092 981.828 637.796 977.364C645.5 972.9 651.906 966.504 656.382 958.807C660.857 951.109 663.247 942.378 663.315 933.474C663.383 924.57 661.127 915.803 656.769 908.038L654.809 905.098C653.486 903.185 652.03 901.366 650.454 899.654V899.654C649.7 898.782 649.224 897.704 649.088 896.559C648.952 895.414 649.163 894.254 649.692 893.23C651.286 890.212 653.428 887.517 656.007 885.281C659.185 882.522 662.949 880.521 667.014 879.43C671.078 878.339 675.338 878.186 679.471 878.983C683.603 879.78 687.501 881.506 690.868 884.031C694.235 886.556 696.985 889.813 698.908 893.557L775.129 1024.22C775.823 1025.4 776.192 1026.74 776.196 1028.11C776.201 1029.48 775.841 1030.83 775.155 1032.02C774.468 1033.2 773.478 1034.18 772.288 1034.86C771.097 1035.54 769.747 1035.89 768.378 1035.87H417.22C415.897 1035.96 414.574 1035.71 413.376 1035.14C412.179 1034.57 411.148 1033.7 410.382 1032.62C409.617 1031.54 409.143 1030.28 409.005 1028.96C408.868 1027.64 409.072 1026.31 409.598 1025.09V1025.09Z" fill="#4FFFFF"/>
<path d="M854.832 1035.98H821.186C817.195 1035.88 813.296 1034.75 809.864 1032.71C806.432 1030.67 803.582 1027.79 801.587 1024.33L718.398 880.925C713.936 873.142 707.498 866.676 699.736 862.178C691.973 857.681 683.161 855.313 674.19 855.313C665.219 855.313 656.407 857.681 648.645 862.178C640.882 866.676 634.445 873.142 629.983 880.925L628.458 884.083C627.394 886.154 626.484 888.301 625.736 890.507C625.412 891.62 624.74 892.601 623.82 893.306C622.899 894.011 621.778 894.403 620.618 894.427C617.216 894.5 613.827 893.984 610.601 892.902C606.631 891.521 603.025 889.26 600.053 886.289C597.081 883.318 594.819 879.713 593.436 875.744C592.054 871.775 591.587 867.544 592.07 863.369C592.554 859.194 593.975 855.183 596.228 851.634L672.448 720.971C673.126 719.795 674.102 718.819 675.278 718.14C676.453 717.461 677.787 717.104 679.145 717.104C680.502 717.104 681.836 717.461 683.011 718.14C684.187 718.819 685.163 719.795 685.841 720.971L861.474 1024.33C862.164 1025.5 862.532 1026.83 862.542 1028.2C862.551 1029.56 862.201 1030.89 861.527 1032.08C860.853 1033.26 859.879 1034.24 858.704 1034.93C857.528 1035.61 856.193 1035.97 854.832 1035.98V1035.98Z" fill="#4FFFFF"/>
<path d="M1381.6 645.405L1398.48 674.477C1400.51 678.023 1401.58 682.04 1401.58 686.128C1401.58 690.216 1400.51 694.233 1398.48 697.779L1315.51 840.964C1311.12 848.716 1308.84 857.48 1308.88 866.387C1308.93 875.294 1311.31 884.034 1315.77 891.739C1320.24 899.444 1326.65 905.846 1334.36 910.309C1342.07 914.773 1350.81 917.143 1359.71 917.184H1363.31C1365.56 917.184 1367.84 916.857 1370.17 916.204C1371.3 915.957 1372.49 916.065 1373.56 916.513C1374.63 916.961 1375.54 917.727 1376.16 918.708C1378.85 923.012 1380.31 927.972 1380.39 933.048C1380.46 938.125 1379.14 943.124 1376.57 947.503C1374 951.881 1370.27 955.47 1365.8 957.881C1361.34 960.291 1356.29 961.43 1351.22 961.174H1199.76C1198.43 961.19 1197.11 960.854 1195.95 960.202C1194.78 959.549 1193.81 958.602 1193.13 957.456C1192.44 956.309 1192.07 955.003 1192.05 953.668C1192.03 952.333 1192.36 951.017 1193.01 949.85L1368.1 644.969C1368.81 643.788 1369.82 642.817 1371.03 642.158C1372.24 641.499 1373.6 641.174 1374.98 641.219C1376.35 641.263 1377.69 641.675 1378.86 642.411C1380.02 643.146 1380.97 644.18 1381.6 645.405V645.405Z" fill="#4FFFFF"/>
<path d="M1149.46 1025.09L1166.33 996.018C1168.38 992.405 1171.36 989.408 1174.96 987.339C1178.56 985.27 1182.65 984.207 1186.8 984.259H1352.31C1361.21 984.204 1369.95 981.828 1377.65 977.364C1385.36 972.9 1391.76 966.504 1396.24 958.807C1400.71 951.109 1403.1 942.378 1403.17 933.474C1403.24 924.57 1400.98 915.803 1396.63 908.038L1394.67 905.098C1393.34 903.185 1391.89 901.366 1390.31 899.654V899.654C1389.56 898.782 1389.08 897.704 1388.95 896.559C1388.81 895.414 1389.02 894.254 1389.55 893.23C1391.14 890.212 1393.29 887.517 1395.86 885.281C1399.04 882.522 1402.81 880.521 1406.87 879.43C1410.94 878.339 1415.2 878.186 1419.33 878.983C1423.46 879.78 1427.36 881.506 1430.73 884.031C1434.09 886.556 1436.84 889.813 1438.77 893.557L1514.99 1024.22C1515.68 1025.4 1516.05 1026.74 1516.05 1028.11C1516.06 1029.48 1515.7 1030.83 1515.01 1032.02C1514.33 1033.2 1513.34 1034.18 1512.15 1034.86C1510.95 1035.54 1509.61 1035.89 1508.24 1035.87H1157.08C1155.76 1035.96 1154.43 1035.71 1153.23 1035.14C1152.04 1034.57 1151.01 1033.7 1150.24 1032.62C1149.47 1031.54 1149 1030.28 1148.86 1028.96C1148.73 1027.64 1148.93 1026.31 1149.46 1025.09V1025.09Z" fill="#4FFFFF"/>
<path d="M1594.69 1035.98H1561.04C1557.05 1035.88 1553.15 1034.75 1549.72 1032.71C1546.29 1030.67 1543.44 1027.79 1541.44 1024.33L1458.26 880.925C1453.79 873.142 1447.36 866.676 1439.59 862.178C1431.83 857.681 1423.02 855.313 1414.05 855.313C1405.08 855.313 1396.26 857.681 1388.5 862.178C1380.74 866.676 1374.3 873.142 1369.84 880.925L1368.32 884.083C1367.25 886.154 1366.34 888.301 1365.59 890.507C1365.27 891.62 1364.6 892.601 1363.68 893.306C1362.76 894.011 1361.64 894.403 1360.48 894.427C1357.07 894.5 1353.68 893.984 1350.46 892.902C1346.49 891.521 1342.88 889.26 1339.91 886.289C1336.94 883.318 1334.68 879.713 1333.29 875.744C1331.91 871.775 1331.44 867.544 1331.93 863.369C1332.41 859.194 1333.83 855.183 1336.09 851.634L1412.31 720.971C1412.98 719.795 1413.96 718.819 1415.14 718.14C1416.31 717.461 1417.64 717.104 1419 717.104C1420.36 717.104 1421.69 717.461 1422.87 718.14C1424.04 718.819 1425.02 719.795 1425.7 720.971L1601.33 1024.33C1602.02 1025.5 1602.39 1026.83 1602.4 1028.2C1602.41 1029.56 1602.06 1030.89 1601.38 1032.08C1600.71 1033.26 1599.74 1034.24 1598.56 1034.93C1597.39 1035.61 1596.05 1035.97 1594.69 1035.98V1035.98Z" fill="#4FFFFF"/>
</g>
<path d="M641.744 645.405L658.621 674.477C660.656 678.023 661.726 682.04 661.726 686.128C661.726 690.216 660.656 694.233 658.621 697.779L575.65 840.964C571.263 848.716 568.98 857.48 569.027 866.387C569.074 875.294 571.45 884.034 575.918 891.739C580.387 899.444 586.794 905.846 594.502 910.309C602.21 914.773 610.951 917.143 619.858 917.184H623.451C625.701 917.184 627.988 916.857 630.311 916.204C631.445 915.957 632.629 916.065 633.7 916.513C634.771 916.961 635.679 917.727 636.3 918.708C638.994 923.012 640.457 927.972 640.529 933.048C640.602 938.125 639.28 943.124 636.71 947.503C634.139 951.881 630.417 955.47 625.948 957.881C621.479 960.291 616.436 961.43 611.365 961.174H459.904C458.569 961.19 457.254 960.854 456.089 960.202C454.925 959.549 453.952 958.602 453.269 957.456C452.585 956.309 452.215 955.003 452.194 953.668C452.174 952.333 452.505 951.017 453.153 949.85L628.242 644.969C628.951 643.788 629.962 642.817 631.171 642.158C632.381 641.499 633.744 641.174 635.121 641.219C636.498 641.263 637.838 641.675 639.002 642.411C640.166 643.146 641.113 644.18 641.744 645.405V645.405Z" fill="#4FFFFF" stroke="#4FFFFF" stroke-width="2"/>
<path d="M409.598 1025.09L426.475 996.018C428.522 992.405 431.502 989.408 435.103 987.339C438.703 985.27 442.794 984.207 446.946 984.259H612.453C621.356 984.204 630.092 981.828 637.796 977.364C645.5 972.9 651.906 966.504 656.382 958.807C660.857 951.109 663.247 942.378 663.315 933.474C663.383 924.57 661.127 915.803 656.769 908.038L654.809 905.098C653.486 903.185 652.03 901.366 650.454 899.654V899.654C649.7 898.782 649.224 897.704 649.088 896.559C648.952 895.414 649.163 894.254 649.692 893.23C651.286 890.212 653.428 887.517 656.007 885.281C659.185 882.522 662.949 880.521 667.014 879.43C671.078 878.339 675.338 878.186 679.471 878.983C683.603 879.78 687.501 881.506 690.868 884.031C694.235 886.556 696.985 889.813 698.908 893.557L775.129 1024.22C775.823 1025.4 776.192 1026.74 776.196 1028.11C776.201 1029.48 775.841 1030.83 775.155 1032.02C774.468 1033.2 773.478 1034.18 772.288 1034.86C771.097 1035.54 769.747 1035.89 768.378 1035.87H417.22C415.897 1035.96 414.574 1035.71 413.376 1035.14C412.179 1034.57 411.148 1033.7 410.382 1032.62C409.617 1031.54 409.143 1030.28 409.005 1028.96C408.868 1027.64 409.072 1026.31 409.598 1025.09V1025.09Z" fill="#4FFFFF" stroke="#4FFFFF" stroke-width="2"/>
<path d="M854.832 1035.98H821.186C817.195 1035.88 813.296 1034.75 809.864 1032.71C806.432 1030.67 803.582 1027.79 801.587 1024.33L718.398 880.925C713.936 873.142 707.498 866.676 699.736 862.178C691.973 857.681 683.161 855.313 674.19 855.313C665.219 855.313 656.407 857.681 648.645 862.178C640.882 866.676 634.445 873.142 629.983 880.925L628.458 884.083C627.394 886.154 626.484 888.301 625.736 890.507C625.412 891.62 624.74 892.601 623.82 893.306C622.899 894.011 621.778 894.403 620.618 894.427C617.216 894.5 613.827 893.984 610.601 892.902C606.631 891.521 603.025 889.26 600.053 886.289C597.081 883.318 594.819 879.713 593.436 875.744C592.054 871.775 591.587 867.544 592.07 863.369C592.554 859.194 593.975 855.183 596.228 851.634L672.448 720.971C673.126 719.795 674.102 718.819 675.278 718.14C676.453 717.461 677.787 717.104 679.145 717.104C680.502 717.104 681.836 717.461 683.011 718.14C684.187 718.819 685.163 719.795 685.841 720.971L861.474 1024.33C862.164 1025.5 862.532 1026.83 862.542 1028.2C862.551 1029.56 862.201 1030.89 861.527 1032.08C860.853 1033.26 859.879 1034.24 858.704 1034.93C857.528 1035.61 856.193 1035.97 854.832 1035.98V1035.98Z" fill="#4FFFFF" stroke="#4FFFFF" stroke-width="2"/>
<path d="M1381.6 645.405L1398.48 674.477C1400.51 678.023 1401.58 682.04 1401.58 686.128C1401.58 690.216 1400.51 694.233 1398.48 697.779L1315.51 840.964C1311.12 848.716 1308.84 857.48 1308.88 866.387C1308.93 875.294 1311.31 884.034 1315.77 891.739C1320.24 899.444 1326.65 905.846 1334.36 910.309C1342.07 914.773 1350.81 917.143 1359.71 917.184H1363.31C1365.56 917.184 1367.84 916.857 1370.17 916.204C1371.3 915.957 1372.49 916.065 1373.56 916.513C1374.63 916.961 1375.54 917.727 1376.16 918.708C1378.85 923.012 1380.31 927.972 1380.39 933.048C1380.46 938.125 1379.14 943.124 1376.57 947.503C1374 951.881 1370.27 955.47 1365.8 957.881C1361.34 960.291 1356.29 961.43 1351.22 961.174H1199.76C1198.43 961.19 1197.11 960.854 1195.95 960.202C1194.78 959.549 1193.81 958.602 1193.13 957.456C1192.44 956.309 1192.07 955.003 1192.05 953.668C1192.03 952.333 1192.36 951.017 1193.01 949.85L1368.1 644.969C1368.81 643.788 1369.82 642.817 1371.03 642.158C1372.24 641.499 1373.6 641.174 1374.98 641.219C1376.35 641.263 1377.69 641.675 1378.86 642.411C1380.02 643.146 1380.97 644.18 1381.6 645.405V645.405Z" fill="#4FFFFF" stroke="#4FFFFF" stroke-width="2"/>
<path d="M1149.46 1025.09L1166.33 996.018C1168.38 992.405 1171.36 989.408 1174.96 987.339C1178.56 985.27 1182.65 984.207 1186.8 984.259H1352.31C1361.21 984.204 1369.95 981.828 1377.65 977.364C1385.36 972.9 1391.76 966.504 1396.24 958.807C1400.71 951.109 1403.1 942.378 1403.17 933.474C1403.24 924.57 1400.98 915.803 1396.63 908.038L1394.67 905.098C1393.34 903.185 1391.89 901.366 1390.31 899.654V899.654C1389.56 898.782 1389.08 897.704 1388.95 896.559C1388.81 895.414 1389.02 894.254 1389.55 893.23C1391.14 890.212 1393.29 887.517 1395.86 885.281C1399.04 882.522 1402.81 880.521 1406.87 879.43C1410.94 878.339 1415.2 878.186 1419.33 878.983C1423.46 879.78 1427.36 881.506 1430.73 884.031C1434.09 886.556 1436.84 889.813 1438.77 893.557L1514.99 1024.22C1515.68 1025.4 1516.05 1026.74 1516.05 1028.11C1516.06 1029.48 1515.7 1030.83 1515.01 1032.02C1514.33 1033.2 1513.34 1034.18 1512.15 1034.86C1510.95 1035.54 1509.61 1035.89 1508.24 1035.87H1157.08C1155.76 1035.96 1154.43 1035.71 1153.23 1035.14C1152.04 1034.57 1151.01 1033.7 1150.24 1032.62C1149.47 1031.54 1149 1030.28 1148.86 1028.96C1148.73 1027.64 1148.93 1026.31 1149.46 1025.09V1025.09Z" fill="#4FFFFF" stroke="#4FFFFF" stroke-width="2"/>
<path d="M1594.69 1035.98H1561.04C1557.05 1035.88 1553.15 1034.75 1549.72 1032.71C1546.29 1030.67 1543.44 1027.79 1541.44 1024.33L1458.26 880.925C1453.79 873.142 1447.36 866.676 1439.59 862.178C1431.83 857.681 1423.02 855.313 1414.05 855.313C1405.08 855.313 1396.26 857.681 1388.5 862.178C1380.74 866.676 1374.3 873.142 1369.84 880.925L1368.32 884.083C1367.25 886.154 1366.34 888.301 1365.59 890.507C1365.27 891.62 1364.6 892.601 1363.68 893.306C1362.76 894.011 1361.64 894.403 1360.48 894.427C1357.07 894.5 1353.68 893.984 1350.46 892.902C1346.49 891.521 1342.88 889.26 1339.91 886.289C1336.94 883.318 1334.68 879.713 1333.29 875.744C1331.91 871.775 1331.44 867.544 1331.93 863.369C1332.41 859.194 1333.83 855.183 1336.09 851.634L1412.31 720.971C1412.98 719.795 1413.96 718.819 1415.14 718.14C1416.31 717.461 1417.64 717.104 1419 717.104C1420.36 717.104 1421.69 717.461 1422.87 718.14C1424.04 718.819 1425.02 719.795 1425.7 720.971L1601.33 1024.33C1602.02 1025.5 1602.39 1026.83 1602.4 1028.2C1602.41 1029.56 1602.06 1030.89 1601.38 1032.08C1600.71 1033.26 1599.74 1034.24 1598.56 1034.93C1597.39 1035.61 1596.05 1035.97 1594.69 1035.98V1035.98Z" fill="#4FFFFF" stroke="#4FFFFF" stroke-width="2"/>
<g filter="url(#filter1_dddd_2320_92121)">
<path d="M838.335 1126.85C837.198 1126.27 835.948 1125.95 834.674 1125.9C833.618 1125.87 832.569 1126.07 831.596 1126.48C830.624 1126.9 829.753 1127.52 829.042 1128.3C827.501 1129.88 826.642 1132 826.653 1134.21V1161.46H819.314V1134.21C819.286 1131.22 820.098 1128.28 821.657 1125.73C823.21 1123.17 825.439 1121.09 828.096 1119.73C830.154 1118.76 832.401 1118.27 834.674 1118.28C836.513 1118.27 838.335 1118.62 840.042 1119.31C841.994 1120.14 843.81 1121.27 845.426 1122.64L838.335 1126.85Z" fill="#4FFFFF"/>
<path d="M851.042 1143.29C851.112 1144.85 851.653 1146.34 852.594 1147.58C853.534 1149.01 854.697 1150.28 856.038 1151.35C858.419 1153.23 861.373 1154.22 864.401 1154.17C869.459 1154.17 873.596 1151.72 876.813 1146.81L883.298 1150.66C881.283 1154.06 878.47 1156.91 875.106 1158.97C871.888 1160.91 868.2 1161.92 864.447 1161.88C861.606 1161.9 858.792 1161.33 856.178 1160.21C850.967 1158 846.82 1153.84 844.619 1148.61C843.506 1145.98 842.941 1143.15 842.959 1140.3C842.954 1134.59 845.183 1129.11 849.165 1125.04C851.103 1123.02 853.445 1121.42 856.038 1120.37C861.374 1118.18 867.35 1118.18 872.686 1120.37C875.281 1121.42 877.624 1123.01 879.559 1125.04C881.563 1127 883.155 1129.35 884.24 1131.93C885.325 1134.52 885.88 1137.3 885.874 1140.11C885.867 1141.2 885.778 1142.29 885.61 1143.37L851.042 1143.29ZM857.791 1127.27C855.858 1128.19 854.176 1129.56 852.889 1131.28C851.71 1132.82 851.062 1134.7 851.042 1136.64H877.666C877.632 1134.69 876.973 1132.81 875.789 1131.28C874.502 1129.55 872.821 1128.15 870.886 1127.21C868.843 1126.19 866.595 1125.67 864.316 1125.67C862.036 1125.67 859.788 1126.19 857.745 1127.21L857.791 1127.27Z" fill="#4FFFFF"/>
<path d="M909.054 1161.46H901.808L885.005 1118.62H893.104L905.516 1149.9L917.804 1118.62H925.903L909.054 1161.46Z" fill="#4FFFFF"/>
<path d="M932.14 1111.3C931.591 1110.75 931.217 1110.05 931.065 1109.28C930.913 1108.52 930.989 1107.73 931.285 1107.01C931.58 1106.29 932.081 1105.67 932.725 1105.24C933.369 1104.8 934.126 1104.57 934.902 1104.57C935.943 1104.57 936.941 1104.98 937.677 1105.72C938.414 1106.46 938.827 1107.47 938.827 1108.51C938.827 1109.56 938.414 1110.56 937.677 1111.3C936.941 1112.04 935.943 1112.45 934.902 1112.45C934.388 1112.46 933.878 1112.36 933.403 1112.16C932.928 1111.96 932.498 1111.67 932.14 1111.3V1111.3ZM931.411 1161.46V1118.62H938.579V1161.46H931.411Z" fill="#4FFFFF"/>
<path d="M950.433 1143.29C950.513 1144.84 951.053 1146.34 951.984 1147.58C952.925 1149.02 954.094 1150.29 955.444 1151.35C957.823 1153.23 960.778 1154.23 963.807 1154.17C968.865 1154.17 973.002 1151.72 976.219 1146.81L982.704 1150.66C980.688 1154.06 977.876 1156.91 974.512 1158.97C971.294 1160.91 967.606 1161.92 963.853 1161.88C961.007 1161.9 958.188 1161.33 955.568 1160.22C952.983 1159.13 950.637 1157.54 948.664 1155.54C946.682 1153.55 945.101 1151.2 944.009 1148.61C942.904 1145.98 942.339 1143.15 942.349 1140.3C942.336 1134.59 944.566 1129.11 948.555 1125.04C950.487 1123.01 952.831 1121.42 955.428 1120.37C960.76 1118.19 966.729 1118.19 972.061 1120.37C974.651 1121.42 976.989 1123.01 978.918 1125.04C980.925 1127 982.519 1129.34 983.604 1131.93C984.689 1134.52 985.243 1137.3 985.233 1140.11C985.231 1141.2 985.148 1142.29 984.985 1143.37L950.433 1143.29ZM957.166 1127.27C955.236 1128.19 953.554 1129.57 952.263 1131.28C951.09 1132.82 950.447 1134.7 950.433 1136.64H977.041C977.027 1134.7 976.384 1132.82 975.21 1131.28C973.927 1129.54 972.245 1128.15 970.307 1127.21C968.265 1126.2 966.016 1125.67 963.737 1125.67C961.458 1125.67 959.209 1126.2 957.166 1127.21V1127.27Z" fill="#4FFFFF"/>
<path d="M1033.69 1161.46H1026.29L1018.53 1142.09L1010.77 1161.46H1003.32L986.086 1118.62H994.449L1006.99 1149.98L1014.32 1131.89L1009.03 1118.7H1017.4L1029.93 1149.98L1042.48 1118.7H1050.75L1033.69 1161.46Z" fill="#4FFFFF"/>
<path d="M1068.5 1160.65C1066.18 1159.46 1064.16 1157.74 1062.61 1155.63V1179.71H1055.02V1119.65H1062.61V1125.65C1064.34 1123.48 1066.49 1121.69 1068.92 1120.37C1071.3 1119.07 1073.97 1118.4 1076.68 1118.41C1079.54 1118.39 1082.36 1118.96 1085 1120.07C1087.59 1121.15 1089.94 1122.77 1091.87 1124.83C1093.85 1126.87 1095.43 1129.27 1096.52 1131.9C1097.64 1134.57 1098.2 1137.44 1098.18 1140.33C1098.21 1143.22 1097.64 1146.07 1096.52 1148.73C1095.43 1151.35 1093.85 1153.73 1091.87 1155.76C1089.91 1157.76 1087.57 1159.34 1085 1160.43C1082.37 1161.58 1079.54 1162.16 1076.68 1162.15C1073.88 1162.27 1071.08 1161.76 1068.5 1160.65V1160.65ZM1071.28 1127.32C1069.61 1128.01 1068.09 1129.05 1066.84 1130.36C1065.57 1131.69 1064.56 1133.24 1063.85 1134.94C1063.11 1136.66 1062.74 1138.51 1062.75 1140.38C1062.74 1142.24 1063.11 1144.08 1063.85 1145.79C1064.57 1147.47 1065.58 1149 1066.84 1150.32C1068.1 1151.65 1069.61 1152.71 1071.28 1153.44C1072.98 1154.17 1074.8 1154.54 1076.65 1154.54C1078.49 1154.54 1080.32 1154.17 1082.02 1153.44C1083.69 1152.71 1085.2 1151.65 1086.45 1150.32C1087.71 1149.01 1088.71 1147.47 1089.4 1145.79C1090.11 1144.07 1090.48 1142.23 1090.47 1140.38C1090.48 1138.51 1090.11 1136.66 1089.4 1134.94C1088.72 1133.24 1087.72 1131.68 1086.45 1130.36C1085.2 1129.05 1083.69 1128.01 1082.02 1127.32C1080.32 1126.61 1078.49 1126.24 1076.65 1126.24C1074.81 1126.24 1072.98 1126.61 1071.28 1127.32V1127.32Z" fill="#4FFFFF"/>
<path d="M1136.91 1161.46V1154.95C1135.15 1157.02 1133 1158.74 1130.59 1160C1128.26 1161.24 1125.65 1161.89 1123.01 1161.88C1120.19 1161.91 1117.39 1161.38 1114.79 1160.31C1112.18 1159.24 1109.81 1157.65 1107.82 1155.65C1105.81 1153.69 1104.23 1151.34 1103.16 1148.75C1102.06 1146.1 1101.49 1143.26 1101.49 1140.39C1101.49 1137.53 1102.06 1134.69 1103.16 1132.04C1104.77 1128.09 1107.52 1124.72 1111.06 1122.36C1114.6 1120.01 1118.76 1118.77 1123.01 1118.81C1125.67 1118.79 1128.3 1119.36 1130.72 1120.49C1133.13 1121.62 1135.27 1123.27 1136.97 1125.33V1119.65H1144.65V1161.46H1136.91ZM1117.59 1127.49C1115.94 1128.17 1114.44 1129.17 1113.17 1130.44C1111.9 1131.72 1110.9 1133.26 1110.22 1134.94C1109.53 1136.67 1109.17 1138.51 1109.17 1140.38C1109.16 1142.23 1109.52 1144.07 1110.22 1145.79C1110.9 1147.46 1111.91 1148.98 1113.18 1150.25C1114.46 1151.53 1115.98 1152.52 1117.66 1153.19C1119.37 1153.9 1121.21 1154.27 1123.07 1154.26C1126.74 1154.27 1130.26 1152.82 1132.88 1150.24C1134.14 1148.97 1135.14 1147.45 1135.82 1145.79C1136.54 1144.07 1136.9 1142.23 1136.89 1140.38C1136.9 1138.51 1136.53 1136.66 1135.82 1134.94C1135.15 1133.26 1134.15 1131.72 1132.88 1130.44C1130.26 1127.86 1126.74 1126.41 1123.07 1126.42C1121.19 1126.4 1119.33 1126.77 1117.59 1127.49V1127.49Z" fill="#4FFFFF"/>
<path d="M1184.54 1161.46V1154.85C1182.77 1156.99 1180.58 1158.74 1178.1 1160C1175.7 1161.24 1173.04 1161.88 1170.34 1161.88C1167.45 1161.91 1164.57 1161.34 1161.9 1160.21C1159.33 1159.16 1157 1157.56 1155.08 1155.54C1153.09 1153.5 1151.51 1151.1 1150.42 1148.46C1148.21 1143.06 1148.21 1136.99 1150.42 1131.59C1151.52 1128.96 1153.1 1126.57 1155.08 1124.53C1157 1122.48 1159.32 1120.85 1161.9 1119.76C1164.58 1118.64 1167.45 1118.07 1170.34 1118.09C1173.14 1118.06 1175.9 1118.68 1178.41 1119.9C1180.79 1121.05 1182.89 1122.72 1184.54 1124.79V1104.54H1192.05V1161.46H1184.54ZM1165.07 1126.88C1163.4 1127.57 1161.88 1128.61 1160.63 1129.92C1159.37 1131.26 1158.35 1132.82 1157.64 1134.52C1156.91 1136.24 1156.53 1138.09 1156.54 1139.96C1156.52 1141.82 1156.88 1143.66 1157.58 1145.38C1158.29 1147.1 1159.32 1148.66 1160.63 1149.98C1161.89 1151.3 1163.4 1152.36 1165.07 1153.09C1166.76 1153.83 1168.59 1154.21 1170.44 1154.2C1172.28 1154.2 1174.11 1153.82 1175.81 1153.1C1177.51 1152.37 1179.05 1151.31 1180.34 1149.98C1181.65 1148.66 1182.68 1147.1 1183.39 1145.38C1184.09 1143.66 1184.44 1141.82 1184.43 1139.96C1184.44 1138.09 1184.06 1136.23 1183.31 1134.52C1182.61 1132.82 1181.6 1131.26 1180.34 1129.92C1179.07 1128.6 1177.54 1127.57 1175.85 1126.88C1174.13 1126.17 1172.29 1125.81 1170.44 1125.82C1168.6 1125.81 1166.77 1126.17 1165.07 1126.88V1126.88Z" fill="#4FFFFF"/>
</g>
<g opacity="0.2">
<path opacity="0.2" d="M1002 1502.97C574.841 1502.97 223.781 1259.44 183.411 872.705C180.851 897.725 179.501 923.085 179.501 948.755C179.501 1378.93 547.741 1654.3 1002 1654.3C1456.26 1654.3 1824.5 1378.93 1824.5 948.755C1824.5 923.095 1823.15 897.735 1820.59 872.705C1780.22 1259.44 1429.15 1502.97 1002 1502.97Z" fill="#240C23"/>
</g>
<defs>
<filter id="filter0_dd_2320_92121" x="158.964" y="391.215" width="1693.44" height="894.764" filterUnits="userSpaceOnUse" color-interpolation-filters="sRGB">
<feFlood flood-opacity="0" result="BackgroundImageFix"/>
<feColorMatrix in="SourceAlpha" type="matrix" values="0 0 0 0 0 0 0 0 0 0 0 0 0 0 0 0 0 0 127 0" result="hardAlpha"/>
<feOffset/>
<feGaussianBlur stdDeviation="125"/>
<feComposite in2="hardAlpha" operator="out"/>
<feColorMatrix type="matrix" values="0 0 0 0 0.309804 0 0 0 0 1 0 0 0 0 1 0 0 0 1 0"/>
<feBlend mode="normal" in2="BackgroundImageFix" result="effect1_dropShadow_2320_92121"/>
<feColorMatrix in="SourceAlpha" type="matrix" values="0 0 0 0 0 0 0 0 0 0 0 0 0 0 0 0 0 0 127 0" result="hardAlpha"/>
<feOffset/>
<feGaussianBlur stdDeviation="25"/>
<feComposite in2="hardAlpha" operator="out"/>
<feColorMatrix type="matrix" values="0 0 0 0 0.309804 0 0 0 0 1 0 0 0 0 1 0 0 0 0.75 0"/>
<feBlend mode="normal" in2="effect1_dropShadow_2320_92121" result="effect2_dropShadow_2320_92121"/>
<feBlend mode="normal" in="SourceGraphic" in2="effect2_dropShadow_2320_92121" result="shape"/>
</filter>
<filter id="filter1_dddd_2320_92121" x="569.313" y="854.537" width="872.737" height="575.172" filterUnits="userSpaceOnUse" color-interpolation-filters="sRGB">
<feFlood flood-opacity="0" result="BackgroundImageFix"/>
<feColorMatrix in="SourceAlpha" type="matrix" values="0 0 0 0 0 0 0 0 0 0 0 0 0 0 0 0 0 0 127 0" result="hardAlpha"/>
<feOffset/>
<feGaussianBlur stdDeviation="125"/>
<feComposite in2="hardAlpha" operator="out"/>
<feColorMatrix type="matrix" values="0 0 0 0 0.309804 0 0 0 0 1 0 0 0 0 1 0 0 0 1 0"/>
<feBlend mode="normal" in2="BackgroundImageFix" result="effect1_dropShadow_2320_92121"/>
<feColorMatrix in="SourceAlpha" type="matrix" values="0 0 0 0 0 0 0 0 0 0 0 0 0 0 0 0 0 0 127 0" result="hardAlpha"/>
<feOffset/>
<feGaussianBlur stdDeviation="25"/>
<feComposite in2="hardAlpha" operator="out"/>
<feColorMatrix type="matrix" values="0 0 0 0 0.309804 0 0 0 0 1 0 0 0 0 1 0 0 0 0.75 0"/>
<feBlend mode="normal" in2="effect1_dropShadow_2320_92121" result="effect2_dropShadow_2320_92121"/>
<feColorMatrix in="SourceAlpha" type="matrix" values="0 0 0 0 0 0 0 0 0 0 0 0 0 0 0 0 0 0 127 0" result="hardAlpha"/>
<feOffset/>
<feGaussianBlur stdDeviation="125"/>
<feComposite in2="hardAlpha" operator="out"/>
<feColorMatrix type="matrix" values="0 0 0 0 0.309804 0 0 0 0 1 0 0 0 0 1 0 0 0 1 0"/>
<feBlend mode="normal" in2="effect2_dropShadow_2320_92121" result="effect3_dropShadow_2320_92121"/>
<feColorMatrix in="SourceAlpha" type="matrix" values="0 0 0 0 0 0 0 0 0 0 0 0 0 0 0 0 0 0 127 0" result="hardAlpha"/>
<feOffset/>
<feGaussianBlur stdDeviation="125"/>
<feComposite in2="hardAlpha" operator="out"/>
<feColorMatrix type="matrix" values="0 0 0 0 0.309804 0 0 0 0 1 0 0 0 0 1 0 0 0 1 0"/>
<feBlend mode="normal" in2="effect3_dropShadow_2320_92121" result="effect4_dropShadow_2320_92121"/>
<feBlend mode="normal" in="SourceGraphic" in2="effect4_dropShadow_2320_92121" result="shape"/>
</filter>
</defs>
</svg>
